<svg width="38" height="48" viewBox="0 0 38 48" fill="none" xmlns="http://www.w3.org/2000/svg">
<g clip-path="url(#clip0_133_785)">
<path fill-rule="evenodd" clip-rule="evenodd" d="M18.3995 47.7221C13.8969 42.3023 9.19977 36.9658 4.94731 31.3793C2.14013 27.6827 0 23.7638 0 18.5941C0 -6.19803 37.9386 -6.19803 37.9386 18.5941C37.9386 23.7915 35.7985 27.6827 32.9913 31.3793C28.7389 36.9658 24.0139 42.3023 19.5391 47.7221C19.4001 47.8888 19.1778 48 18.9554 48C18.7331 48 18.5385 47.8888 18.3995 47.7221Z" fill="#286AA7"/>
<circle cx="18.8996" cy="18.6223" r="13.3411" fill="white"/>
<path d="M15.9995 15.6836L21.2742 11.0505C22.9908 9.54226 25.5907 9.68392 27.0739 11.3672C28.5572 13.0504 28.3655 15.6419 26.6406 17.1585L21.3659 21.7916L15.9995 15.6836Z" fill="#286AA7"/>
<path d="M16.1494 15.5498L10.8746 20.1829C9.15805 21.6912 8.9664 24.2827 10.4413 25.9743C11.9246 27.6575 14.5161 27.8075 16.241 26.2909L21.5157 21.6578L16.1494 15.5498Z" fill="#A72828"/>
<path d="M10.8245 23.5329C10.7245 22.5163 11.1995 21.5164 12.0328 20.9081C12.4494 20.5997 11.9411 20.0081 11.5328 20.3081C10.4745 21.0914 9.91622 22.3913 10.0412 23.6746C10.0912 24.1746 10.8745 24.0329 10.8245 23.5329Z" fill="#DDDAE8"/>
<path d="M10.5077 25.0077C10.6077 25.0077 10.6994 24.9744 10.7744 24.8994L10.791 24.8827C10.8577 24.816 10.9077 24.7161 10.9077 24.6244C10.9077 24.5327 10.8744 24.4244 10.8077 24.3661C10.7411 24.2994 10.6494 24.2494 10.5494 24.2577C10.4494 24.2577 10.3577 24.2911 10.2827 24.3661L10.2661 24.3827C10.1994 24.4494 10.1494 24.5494 10.1494 24.6411C10.1494 24.7327 10.1827 24.841 10.2494 24.8994C10.3244 24.966 10.4161 25.016 10.5077 25.0077Z" fill="#DDDAE8"/>
<g opacity="0.18">
<path opacity="0.66" d="M15.7079 25.0744L20.8242 20.5746L20.9742 20.4413L26.0906 15.9415C27.2906 14.8832 27.7489 13.3 27.4072 11.8584C28.4739 13.525 28.1739 15.7915 26.6073 17.1581L21.4909 21.6579L21.3409 21.7912L16.2245 26.291C14.5079 27.7992 11.908 27.6576 10.4248 25.9743C9.98315 25.466 9.6915 24.8827 9.5415 24.2661C9.64983 24.4327 9.77483 24.5994 9.90815 24.7494C11.3997 26.4493 13.9913 26.591 15.7079 25.0744Z" fill="white"/>
</g>
</g>
<defs>
<clipPath id="clip0_133_785">
<rect width="37.9386" height="48" fill="white"/>
</clipPath>
</defs>
</svg>
