<svg width="635" height="606" viewBox="0 0 635 606" fill="none" xmlns="http://www.w3.org/2000/svg">
<g clip-path="url(#clip0_136_800)">
<path d="M204.081 53.0455C236.833 62.7289 261.564 108.866 262.374 157.511C263.456 222.779 224.868 234.568 206.67 232.152C188.472 229.736 159.127 210.332 131.535 228.505C103.943 246.677 57.2372 201.47 58.3466 144.418C59.3942 90.5299 116.146 121.623 131.333 80.3633C140.929 54.3585 174.79 44.4015 204.081 53.0455Z" fill="url(#paint0_linear_136_800)"/>
<path d="M174.033 98.8278H163.512V87.9316H153.537V98.8278H143.016V109.159H153.537V120.055H163.512V109.159H174.033V98.8278Z" fill="#FF0000"/>
<path d="M281.012 175.046H29.9883V289.824H281.012V175.046Z" fill="#F8F7F3"/>
<path d="M281.012 175.046H29.9883V210.461H281.012V175.046Z" fill="#E9E0D1"/>
<path d="M285 174.517H26V198.123H285V174.517Z" fill="#EEEBE3"/>
<path d="M29.9883 203.539H281.012" stroke="#4B2740" stroke-miterlimit="10"/>
<path d="M29.9883 260.136H281.012" stroke="#4B2740" stroke-miterlimit="10"/>
<path d="M111.488 104.599L114.482 98.4078C114.482 98.4078 112.052 94.6785 113.733 92.3078C115.415 89.9371 117.66 92.3078 117.66 92.3078V93.4749L119.245 93.7575V89.4994C119.245 89.4994 124.017 89.0161 123.735 86.9828C123.453 84.9495 122.846 81.822 122.846 81.822C122.846 81.822 135.171 80.9831 137.232 86.0163C139.292 91.0495 135.647 101.699 133.868 105.474C132.09 109.249 125.645 109.824 125.645 109.824L120.97 115.44L111.488 104.599Z" fill="#804F53"/>
<path d="M111.488 84.5664C112.148 82.1501 114.605 83.3081 114.605 83.3081C114.605 83.3081 112.148 80.0165 114.2 77.3084C116.251 74.6003 118.971 77.9831 118.971 77.9831C118.971 77.9831 120.732 68.7921 125.319 67.5338C129.906 66.2755 126.446 74.0168 126.446 74.0168C126.446 74.0168 137.654 70.8254 140.647 73.6338C143.641 76.4422 135.365 77.892 135.365 77.892C135.365 77.892 149.099 80.1168 149.196 85.4417C149.293 90.7667 142.751 87.9583 142.751 87.9583C142.751 87.9583 149.663 94.031 145.736 94.1495C143.209 94.2225 140.947 92.5903 137.812 90.4567C136.659 89.6725 135.391 88.8154 133.947 87.9583C128.128 84.4843 122.845 81.8219 122.845 81.8219C122.845 81.8219 123.497 84.9585 123.779 86.9827C124.06 89.0069 119.288 89.4993 119.288 89.4993V93.7666L117.704 93.4839V92.3077L117.624 92.2438C117.193 91.87 115.943 90.9399 114.737 91.5964C114.737 91.5964 110.836 86.9827 111.488 84.5664Z" fill="#48213E"/>
<path d="M140.454 112.167C142.281 114.873 143.431 118.006 143.799 121.285C145.481 133.677 151.089 169.948 151.089 169.948L142.866 174.708L133.146 134.607L140.111 112.003L140.454 112.167Z" fill="#DDDAD7"/>
<path d="M106.628 99.958C106.628 99.958 109.622 98.4079 112.862 101.782L111.488 104.599L120.926 115.441L125.601 109.824C125.601 109.824 130.778 109.35 133.129 106.532C135.907 107.462 138.341 109.254 140.102 111.666V112.003L133.146 134.607L125.073 174.672H83.5791L106.628 99.958Z" fill="#CCCBCA"/>
<path d="M79.529 144.281C79.7051 138.445 92.0308 108.082 95.9751 101.891C99.9194 95.6999 106.628 99.958 106.628 99.958L95.5525 135.81L105.307 133.987C106.012 133.823 107.068 135.81 107.588 138.363C108.107 140.916 108.028 143.141 107.324 143.315C107.324 143.315 100.597 149.861 92.0044 152.761C83.4116 155.66 79.3441 150.089 79.529 144.281Z" fill="#DDDAD7"/>
<path d="M105.088 138.974C105.642 141.554 106.663 143.533 107.368 143.35C108.072 143.168 108.195 140.962 107.641 138.39C107.086 135.819 106.065 133.831 105.36 134.014C104.656 134.196 104.533 136.403 105.088 138.974Z" fill="#5CA9C7"/>
<path d="M125.601 109.824C125.601 109.824 121.525 108.347 117.096 102.019C117.808 106.233 119.973 110.037 123.189 112.723L125.601 109.824Z" fill="#562A35"/>
<path d="M95.5526 135.81C91.8019 136.636 88.2429 138.212 85.0757 140.451L98.5812 126.054L95.5526 135.81Z" fill="#BABABA"/>
<path d="M111.488 104.599L107.993 109.012L112.043 113.89L108.996 116.598L118.901 140.451L129.193 121.759L127.441 118.276H131.174L129.193 109.012" stroke="#181028" stroke-linecap="round" stroke-linejoin="round"/>
<path d="M127.063 109.632L119.791 133.877L112.615 105.894L120.926 115.44L125.601 109.823L127.063 109.632Z" fill="#5CA9C7"/>
<path d="M118.901 140.451V153.59L117.096 154.074L118.003 160.347L117.096 161.705L115.124 174.671" stroke="#181028" stroke-linecap="round" stroke-linejoin="round"/>
<path d="M110.467 129.765L102.024 127.439" stroke="#181028" stroke-linecap="round" stroke-linejoin="round"/>
<path d="M107.993 164.423L94.7778 160.785" stroke="#181028" stroke-linecap="round" stroke-linejoin="round"/>
<path d="M132.046 132.281L125.601 132.719" stroke="#181028" stroke-linecap="round" stroke-linejoin="round"/>
<path d="M125.601 164.423L119.157 164.861" stroke="#181028" stroke-linecap="round" stroke-linejoin="round"/>
<path d="M115.732 151.785C115.732 151.961 115.8 152.131 115.92 152.255C116.041 152.38 116.204 152.45 116.375 152.45C116.545 152.45 116.709 152.38 116.829 152.255C116.95 152.131 117.017 151.961 117.017 151.785C117.017 151.608 116.95 151.439 116.829 151.314C116.709 151.189 116.545 151.119 116.375 151.119C116.204 151.119 116.041 151.189 115.92 151.314C115.8 151.439 115.732 151.608 115.732 151.785Z" stroke="#181028" stroke-linecap="round" stroke-linejoin="round"/>
<path d="M113.487 168.088C113.487 168.22 113.525 168.349 113.595 168.458C113.666 168.568 113.766 168.653 113.884 168.703C114.001 168.754 114.13 168.767 114.255 168.741C114.38 168.716 114.494 168.652 114.584 168.559C114.674 168.466 114.735 168.347 114.76 168.218C114.785 168.089 114.772 167.955 114.723 167.834C114.675 167.712 114.592 167.608 114.487 167.535C114.381 167.462 114.257 167.423 114.13 167.423C113.959 167.423 113.796 167.493 113.675 167.618C113.555 167.743 113.487 167.912 113.487 168.088Z" stroke="#181028" stroke-linecap="round" stroke-linejoin="round"/>
<path d="M112.941 138.327C112.941 138.327 120.275 142.494 119.764 142.886C119.253 143.278 116.92 143.069 116.92 143.069L110.467 137.808L112.606 138.118L112.941 138.327Z" fill="#562A35"/>
<path d="M115.556 134.908L127.556 137.725C127.702 137.764 127.836 137.84 127.945 137.947C128.055 138.054 128.136 138.188 128.181 138.336C128.221 138.48 128.227 138.631 128.198 138.777C128.169 138.924 128.106 139.06 128.014 139.175L124.95 142.822C124.657 143.171 124.276 143.427 123.849 143.561C123.434 143.679 122.996 143.679 122.581 143.561L110.81 140.397C110.674 140.36 110.551 140.285 110.452 140.182C110.353 140.078 110.282 139.949 110.247 139.808C110.212 139.667 110.214 139.519 110.253 139.379C110.291 139.239 110.365 139.112 110.467 139.011L114.341 135.245C114.502 135.092 114.697 134.981 114.908 134.922C115.12 134.863 115.342 134.858 115.556 134.908Z" fill="#78CEB3"/>
<path d="M115.476 134.643L127.476 137.451C127.624 137.488 127.76 137.563 127.871 137.67C127.982 137.777 128.064 137.912 128.11 138.062C128.15 138.206 128.154 138.358 128.123 138.504C128.093 138.651 128.028 138.787 127.934 138.901L124.87 142.548C124.578 142.897 124.196 143.153 123.77 143.287C123.355 143.41 122.916 143.41 122.502 143.287L110.731 140.132C110.595 140.093 110.471 140.017 110.373 139.913C110.274 139.808 110.204 139.679 110.169 139.537C110.134 139.396 110.136 139.247 110.174 139.107C110.213 138.966 110.286 138.839 110.387 138.737L114.261 134.98C114.42 134.823 114.615 134.71 114.827 134.651C115.039 134.592 115.263 134.589 115.476 134.643Z" fill="#82E0C6"/>
<path d="M123.673 138.445C123.524 137.907 124.017 137.287 124.791 137.041C125.566 136.795 126.314 137.041 126.464 137.57C126.477 137.645 126.477 137.723 126.464 137.798C126.508 137.858 126.541 137.926 126.561 137.999C126.719 138.527 126.218 139.157 125.443 139.394C124.668 139.631 123.929 139.394 123.77 138.865C123.762 138.792 123.762 138.719 123.77 138.646C123.729 138.584 123.697 138.516 123.673 138.445Z" fill="#B0D3E6"/>
<path d="M123.673 138.446C123.831 138.975 124.553 139.212 125.346 138.975C126.138 138.738 126.622 138.063 126.464 137.571C126.305 137.078 125.583 136.805 124.791 137.042C123.999 137.279 123.523 137.908 123.673 138.446Z" fill="#FFFDFF"/>
<path d="M120.433 137.671C120.275 137.142 120.776 136.513 121.542 136.276C122.308 136.039 123.065 136.276 123.224 136.804C123.232 136.877 123.232 136.951 123.224 137.023C123.261 137.087 123.294 137.154 123.321 137.224C123.47 137.762 122.969 138.382 122.203 138.628C121.437 138.874 120.68 138.628 120.53 138.09C120.512 138.018 120.512 137.943 120.53 137.871C120.486 137.811 120.453 137.743 120.433 137.671Z" fill="#B0D3E6"/>
<path d="M120.433 137.671C120.583 138.209 121.314 138.446 122.106 138.2C122.898 137.953 123.374 137.288 123.224 136.805C123.074 136.321 122.344 136.03 121.542 136.276C120.741 136.522 120.275 137.142 120.433 137.671Z" fill="#FFFDFF"/>
<path d="M120.416 137.671C120.266 137.142 120.768 136.513 121.534 136.276C122.3 136.039 123.057 136.276 123.206 136.804C123.224 136.879 123.224 136.958 123.206 137.032C123.252 137.091 123.286 137.16 123.303 137.233C123.462 137.762 122.96 138.391 122.194 138.628C121.428 138.865 120.671 138.628 120.512 138.099C120.503 138.024 120.503 137.947 120.512 137.871C120.473 137.808 120.441 137.741 120.416 137.671Z" fill="#B0D3E6"/>
<path d="M120.416 137.67C120.574 138.208 121.296 138.445 122.097 138.208C122.898 137.971 123.365 137.342 123.207 136.804C123.048 136.266 122.326 136.038 121.534 136.275C120.741 136.512 120.266 137.141 120.416 137.67Z" fill="#FFFDFF"/>
<path d="M117.176 136.904C117.017 136.366 117.519 135.746 118.294 135.5C119.069 135.254 119.808 135.5 119.967 136.038C119.975 136.111 119.975 136.184 119.967 136.257C120.011 136.317 120.044 136.385 120.063 136.457C120.222 136.986 119.72 137.615 118.945 137.852C118.171 138.09 117.431 137.852 117.273 137.324C117.264 137.251 117.264 137.177 117.273 137.105C117.228 137.045 117.195 136.977 117.176 136.904Z" fill="#B0D3E6"/>
<path d="M117.175 136.904C117.334 137.433 118.056 137.67 118.848 137.433C119.641 137.196 120.125 136.521 119.966 136.038C119.808 135.555 119.086 135.263 118.294 135.5C117.501 135.737 117.017 136.366 117.175 136.904Z" fill="#FFFDFF"/>
<path d="M113.909 136.075C113.751 135.546 114.252 134.917 115.018 134.68C115.784 134.443 116.542 134.68 116.7 135.209C116.709 135.284 116.709 135.361 116.7 135.437C116.74 135.498 116.77 135.566 116.788 135.637C116.947 136.166 116.445 136.795 115.679 137.032C114.913 137.269 114.156 137.032 113.997 136.503C113.988 136.428 113.988 136.351 113.997 136.276C113.957 136.214 113.928 136.146 113.909 136.075Z" fill="#B0D3E6"/>
<path d="M113.909 136.074C114.059 136.612 114.79 136.849 115.582 136.612C116.374 136.375 116.85 135.746 116.7 135.208C116.55 134.67 115.82 134.442 115.018 134.679C114.217 134.916 113.751 135.546 113.909 136.074Z" fill="#FFFDFF"/>
<path d="M120.794 141.3C120.644 140.771 121.146 140.142 121.912 139.904C122.678 139.667 123.435 139.904 123.585 140.433C123.602 140.505 123.602 140.58 123.585 140.652C123.629 140.712 123.662 140.78 123.682 140.853C123.84 141.391 123.338 142.011 122.572 142.257C121.806 142.503 121.049 142.257 120.891 141.719C120.882 141.646 120.882 141.573 120.891 141.5C120.853 141.436 120.821 141.369 120.794 141.3Z" fill="#B0D3E6"/>
<path d="M120.794 141.3C120.953 141.838 121.674 142.075 122.476 141.828C123.277 141.582 123.743 140.962 123.585 140.433C123.426 139.904 122.705 139.658 121.912 139.904C121.12 140.151 120.644 140.771 120.794 141.3Z" fill="#FFFDFF"/>
<path d="M117.563 140.524C117.404 139.995 117.906 139.366 118.681 139.129C119.456 138.892 120.195 139.129 120.354 139.658C120.363 139.734 120.363 139.81 120.354 139.886C120.396 139.947 120.429 140.015 120.451 140.086C120.6 140.615 120.107 141.244 119.333 141.482C118.558 141.719 117.809 141.482 117.66 140.953C117.646 140.877 117.646 140.8 117.66 140.725C117.614 140.666 117.581 140.598 117.563 140.524Z" fill="#B0D3E6"/>
<path d="M117.563 140.525C117.713 141.063 118.443 141.3 119.236 141.063C120.028 140.826 120.503 140.151 120.354 139.658C120.204 139.166 119.473 138.893 118.681 139.13C117.889 139.367 117.396 139.996 117.563 140.525Z" fill="#FFFDFF"/>
<path d="M117.563 140.533C117.404 139.995 117.906 139.375 118.672 139.129C119.438 138.883 120.195 139.129 120.354 139.667C120.362 139.74 120.362 139.813 120.354 139.886C120.391 139.95 120.424 140.017 120.451 140.086C120.6 140.615 120.099 141.244 119.333 141.481C118.567 141.718 117.809 141.481 117.66 140.953C117.643 140.881 117.643 140.806 117.66 140.734C117.615 140.674 117.583 140.606 117.563 140.533Z" fill="#B0D3E6"/>
<path d="M117.563 140.533C117.713 141.062 118.443 141.299 119.236 141.062C120.028 140.825 120.504 140.15 120.354 139.667C120.204 139.184 119.473 138.892 118.672 139.129C117.871 139.366 117.387 139.995 117.563 140.533Z" fill="#FFFDFF"/>
<path d="M114.297 139.759C114.147 139.23 114.64 138.601 115.415 138.363C116.19 138.126 116.938 138.363 117.088 138.892C117.105 138.964 117.105 139.039 117.088 139.111C117.132 139.171 117.165 139.239 117.185 139.312C117.343 139.85 116.841 140.47 116.066 140.716C115.292 140.962 114.552 140.716 114.394 140.187C114.385 140.111 114.385 140.035 114.394 139.959C114.353 139.897 114.32 139.83 114.297 139.759Z" fill="#B0D3E6"/>
<path d="M114.296 139.759C114.455 140.297 115.177 140.534 115.978 140.288C116.779 140.041 117.246 139.376 117.087 138.892C116.929 138.409 116.207 138.117 115.415 138.364C114.622 138.61 114.147 139.23 114.296 139.759Z" fill="#FFFDFF"/>
<path d="M111.03 138.937C110.872 138.445 111.4 137.779 112.139 137.533C112.879 137.287 113.663 137.533 113.821 138.071C113.83 138.144 113.83 138.217 113.821 138.29C113.862 138.352 113.895 138.42 113.918 138.491C114.068 139.019 113.575 139.649 112.8 139.886C112.025 140.123 111.277 139.886 111.127 139.357C111.11 139.285 111.11 139.21 111.127 139.138C111.083 139.078 111.05 139.01 111.03 138.937Z" fill="#B0D3E6"/>
<path d="M111.03 138.937C111.18 139.466 111.911 139.703 112.703 139.466C113.495 139.229 113.971 138.554 113.821 138.071C113.672 137.588 112.941 137.296 112.14 137.533C111.338 137.77 110.872 138.445 111.03 138.937Z" fill="#FFFDFF"/>
<path d="M126.429 140.542L112.483 136.877" stroke="#78CEB3" stroke-linecap="round" stroke-linejoin="round"/>
<path d="M105.554 134.607C105.97 134.265 106.46 134.033 106.981 133.931C107.503 133.83 108.041 133.861 108.548 134.023C110.37 134.552 113.637 137.069 113.267 137.798C112.897 138.527 110.467 137.798 110.467 137.798C110.467 137.798 119.482 144.618 118.875 145.439C118.268 146.26 111.075 142.156 110.185 142.156C109.296 142.156 106.364 141.619 106.364 141.619C106.364 141.619 104.357 137.698 105.554 134.607Z" fill="#804F53"/>
<path d="M127.626 95.6456C127.575 95.8174 127.491 95.977 127.38 96.1154C127.269 96.2538 127.133 96.3681 126.979 96.4519C126.825 96.5358 126.657 96.5874 126.484 96.6039C126.311 96.6205 126.137 96.6015 125.971 96.5483C125.805 96.495 125.651 96.4084 125.517 96.2934C125.384 96.1784 125.273 96.0373 125.192 95.8781C125.111 95.7189 125.062 95.5448 125.046 95.3657C125.03 95.1865 125.048 95.0059 125.099 94.8341C125.203 94.4864 125.435 94.1954 125.745 94.0245C126.056 93.8537 126.418 93.8169 126.755 93.9222C126.922 93.9752 127.077 94.062 127.211 94.1775C127.346 94.2931 127.457 94.4351 127.538 94.5954C127.619 94.7557 127.668 94.9311 127.684 95.1113C127.699 95.2916 127.679 95.4732 127.626 95.6456Z" fill="#181028"/>
<path d="M123.347 92.8552C123.223 92.826 123.112 92.7555 123.031 92.6546C122.94 92.5343 122.898 92.3819 122.915 92.2302C122.931 92.0785 123.004 91.9395 123.119 91.8431C123.259 91.7245 126.64 88.9435 129.986 91.0315C130.049 91.0705 130.104 91.1219 130.148 91.1828C130.191 91.2437 130.223 91.313 130.241 91.3866C130.259 91.4603 130.263 91.5369 130.252 91.6121C130.242 91.6873 130.217 91.7596 130.179 91.8248C130.142 91.8901 130.092 91.947 130.033 91.9924C129.975 92.0378 129.908 92.0708 129.837 92.0894C129.765 92.108 129.692 92.112 129.619 92.101C129.546 92.09 129.477 92.0643 129.414 92.0254C126.719 90.3477 123.849 92.7184 123.814 92.7366C123.751 92.7925 123.675 92.8324 123.594 92.853C123.513 92.8735 123.429 92.8743 123.347 92.8552Z" fill="#562A35"/>
<path d="M135.338 96.5019C135.261 96.7598 135.112 96.9884 134.91 97.1587C134.707 97.329 134.461 97.4334 134.201 97.4589C133.942 97.4843 133.681 97.4295 133.451 97.3015C133.221 97.1735 133.033 96.9779 132.911 96.7395C132.789 96.5011 132.737 96.2304 132.763 95.9617C132.789 95.693 132.891 95.4382 133.056 95.2294C133.222 95.0207 133.443 94.8673 133.693 94.7887C133.942 94.7101 134.208 94.7097 134.458 94.7877C134.625 94.8398 134.78 94.9255 134.915 95.04C135.05 95.1546 135.161 95.2956 135.243 95.4549C135.325 95.6143 135.375 95.7888 135.392 95.9685C135.408 96.1482 135.39 96.3295 135.338 96.5019Z" fill="#181028"/>
<path d="M131.65 93.046C131.537 93.0231 131.435 92.9622 131.359 92.8728C131.308 92.8202 131.267 92.7577 131.24 92.6889C131.212 92.62 131.198 92.5462 131.198 92.4716C131.198 92.397 131.212 92.3232 131.24 92.2543C131.267 92.1854 131.308 92.1229 131.359 92.0704C131.447 91.9792 133.569 90.0006 136.95 92.0704C137.013 92.108 137.068 92.1584 137.112 92.2184C137.156 92.2785 137.188 92.3471 137.206 92.4202C137.224 92.4933 137.228 92.5693 137.217 92.6439C137.206 92.7185 137.181 92.7901 137.143 92.8546C137.067 92.9853 136.943 93.0797 136.8 93.1172C136.657 93.1547 136.505 93.1324 136.377 93.0552C133.736 91.4139 132.178 92.8181 132.116 92.8728C132.056 92.936 131.983 92.9845 131.902 93.0144C131.821 93.0444 131.735 93.0552 131.65 93.046Z" fill="#562A35"/>
<path d="M126.314 104.006C125.937 103.938 125.578 103.79 125.258 103.572C124.938 103.354 124.666 103.071 124.456 102.739C124.087 102.074 123.965 101.293 124.113 100.541C124.156 100.398 124.247 100.276 124.37 100.197C124.493 100.118 124.639 100.088 124.782 100.113C124.853 100.13 124.921 100.161 124.98 100.206C125.039 100.25 125.09 100.306 125.128 100.37C125.167 100.434 125.192 100.506 125.204 100.581C125.216 100.656 125.213 100.732 125.196 100.806C125.138 101.035 125.128 101.275 125.166 101.509C125.205 101.744 125.291 101.966 125.419 102.163C125.548 102.36 125.715 102.526 125.91 102.651C126.106 102.775 126.324 102.855 126.552 102.885C126.691 102.921 126.811 103.013 126.887 103.14C126.962 103.267 126.987 103.419 126.956 103.564C126.926 103.71 126.841 103.837 126.722 103.92C126.602 104.002 126.456 104.033 126.314 104.006Z" fill="#562A35"/>
<path d="M128.568 100.578H128.516C128.444 100.56 128.377 100.528 128.318 100.482C128.259 100.437 128.209 100.38 128.171 100.315C128.134 100.25 128.109 100.177 128.098 100.102C128.088 100.026 128.092 99.9498 128.111 99.8761C128.152 99.7306 128.244 99.6066 128.37 99.5288C128.496 99.4511 128.645 99.4253 128.788 99.4567C128.976 99.5024 129.172 99.5065 129.361 99.4688C129.551 99.4311 129.731 99.3524 129.889 99.2379C130.052 98.9899 130.162 98.7084 130.21 98.4126C130.259 98.1168 130.245 97.8136 130.171 97.5237C129.713 94.15 130.602 92.9646 130.699 92.8826C130.747 92.8256 130.805 92.779 130.871 92.7454C130.936 92.7118 131.007 92.6919 131.08 92.6868C131.153 92.6818 131.226 92.6916 131.295 92.7158C131.364 92.74 131.428 92.7781 131.482 92.8278C131.539 92.8768 131.584 92.9369 131.618 93.0046C131.651 93.0723 131.67 93.1463 131.675 93.222C131.68 93.2977 131.67 93.3737 131.646 93.4454C131.622 93.5171 131.585 93.5831 131.535 93.6394C131.535 93.6394 130.893 94.5512 131.271 97.3687C131.396 97.8437 131.402 98.3437 131.289 98.822C131.177 99.3002 130.95 99.7413 130.628 100.104C130.341 100.337 130.006 100.5 129.65 100.582C129.294 100.664 128.924 100.663 128.568 100.578Z" fill="#562A35"/>
<path d="M114.922 94.5508C114.872 94.5595 114.822 94.5595 114.772 94.5508C114.713 94.5303 114.659 94.4979 114.613 94.4555C114.566 94.4131 114.528 94.3615 114.501 94.3038C114.474 94.2461 114.459 94.1834 114.455 94.1194C114.452 94.0553 114.461 93.9912 114.482 93.9308C114.569 93.5881 114.771 93.2886 115.052 93.0851C115.332 92.8816 115.673 92.7871 116.014 92.8183C116.136 92.8407 116.245 92.911 116.319 93.0145C116.393 93.118 116.425 93.2469 116.41 93.3746C116.39 93.5005 116.324 93.6136 116.226 93.6902C116.127 93.7667 116.004 93.8007 115.881 93.7849C115.802 93.7849 115.521 93.7849 115.371 94.2499C115.333 94.3402 115.27 94.4168 115.19 94.4704C115.11 94.5239 115.017 94.5518 114.922 94.5508Z" fill="#562A35"/>
<path d="M116.374 96.3654C116.287 96.3669 116.201 96.3415 116.128 96.2924C114.816 95.4444 114.93 93.4749 114.939 93.3929C114.941 93.329 114.956 93.2662 114.982 93.2083C115.009 93.1504 115.046 93.0986 115.092 93.056C115.138 93.0134 115.192 92.9809 115.25 92.9605C115.309 92.94 115.371 92.932 115.432 92.937C115.557 92.9463 115.673 93.0061 115.755 93.1034C115.838 93.2006 115.88 93.3276 115.872 93.4567C115.872 93.4567 115.793 94.9338 116.63 95.4718C116.735 95.5395 116.809 95.6477 116.838 95.7725C116.866 95.8973 116.845 96.0286 116.779 96.1374C116.736 96.2079 116.676 96.2658 116.605 96.3056C116.534 96.3455 116.455 96.3661 116.374 96.3654Z" fill="#562A35"/>
<g style="mix-blend-mode:multiply">
<path d="M123.726 97.7519C123.726 97.7519 125.214 97.0589 125.486 98.0801C125.795 99.3019 122.335 99.3475 122.335 99.3475C122.335 99.3475 121.859 95.9556 123.118 96.0559C124.377 96.1562 123.726 97.7519 123.726 97.7519Z" fill="#FF7694"/>
</g>
<g style="mix-blend-mode:multiply">
<path d="M133.305 100.241C133.305 100.241 134.793 99.5476 135.066 100.569C135.383 101.791 131.922 101.827 131.922 101.827C131.922 101.827 131.447 98.4352 132.706 98.5446C133.965 98.654 133.305 100.241 133.305 100.241Z" fill="#FF7694"/>
</g>
<path d="M129.546 98.4538C129.44 98.9202 129.204 99.3439 128.866 99.6713C128.528 99.9988 128.105 100.215 127.648 100.294C127.192 100.372 126.724 100.309 126.302 100.112C125.88 99.9146 125.524 99.5927 125.279 99.1865C125.034 98.7802 124.911 98.3079 124.924 97.8291C124.938 97.3502 125.088 96.8863 125.356 96.4958C125.624 96.1054 125.998 95.8058 126.43 95.635C126.862 95.4642 127.334 95.4297 127.785 95.536C128.086 95.6069 128.37 95.7388 128.622 95.9241C128.874 96.1094 129.088 96.3444 129.251 96.6155C129.415 96.8867 129.525 97.1887 129.576 97.5042C129.626 97.8197 129.616 98.1424 129.546 98.4538Z" stroke="#726F6A" stroke-miterlimit="10"/>
<path d="M136.131 100.058C136.026 100.525 135.789 100.948 135.451 101.276C135.114 101.603 134.69 101.82 134.234 101.898C133.777 101.977 133.309 101.913 132.887 101.716C132.466 101.519 132.11 101.197 131.865 100.791C131.62 100.385 131.496 99.9124 131.51 99.4336C131.524 98.9547 131.674 98.4908 131.942 98.1003C132.21 97.7099 132.583 97.4103 133.016 97.2395C133.448 97.0687 133.919 97.0342 134.37 97.1405C134.671 97.2114 134.956 97.3433 135.207 97.5286C135.459 97.7139 135.673 97.9488 135.837 98.22C136 98.4912 136.111 98.7932 136.161 99.1087C136.212 99.4242 136.201 99.7469 136.131 100.058Z" stroke="#726F6A" stroke-miterlimit="10"/>
<path d="M129.563 97.4144C129.963 97.1966 130.426 97.1351 130.866 97.2411C131.322 97.3555 131.722 97.6373 131.993 98.0344" stroke="#726F6A" stroke-miterlimit="10"/>
<path d="M125.557 96.238L119.253 92.1166C118.977 91.8977 118.647 91.7651 118.301 91.7344C117.954 91.7037 117.607 91.7762 117.299 91.9434" stroke="#726F6A" stroke-miterlimit="10"/>
<path d="M151.705 171.9C151.461 170.168 150.606 168.591 149.305 167.473C148.005 166.355 146.351 165.775 144.662 165.846C142.32 165.928 139.696 166.192 139.203 166.976C138.323 168.435 136.562 173.541 136.122 174.271C135.682 175 137.803 175.283 138.701 173.204C138.701 173.204 139.133 174.9 140.947 174.034C140.947 174.034 142.302 175.693 143.588 174.407C143.727 174.581 143.898 174.724 144.091 174.827C144.284 174.93 144.496 174.993 144.713 175.01C144.929 175.027 145.147 174.998 145.354 174.926C145.56 174.854 145.75 174.74 145.912 174.59C147.189 173.487 147.153 173.104 148.184 173.359C149.214 173.614 151.151 173.213 151.705 172.292C151.749 172.301 151.74 172.183 151.705 171.9Z" fill="#804F53"/>
<path d="M138.693 173.213L140.401 169.092" stroke="#562A35" stroke-linecap="round" stroke-linejoin="round"/>
<path d="M140.938 174.042L142.461 169.948" stroke="#562A35" stroke-linecap="round" stroke-linejoin="round"/>
<path d="M143.605 174.416L144.521 171.225" stroke="#562A35" stroke-linecap="round" stroke-linejoin="round"/>
<path d="M127.811 191.968C131.701 191.968 134.854 190.813 134.854 189.388C134.854 187.963 131.701 186.808 127.811 186.808C123.921 186.808 120.768 187.963 120.768 189.388C120.768 190.813 123.921 191.968 127.811 191.968Z" fill="#CCCBCA"/>
<path d="M129.449 172.647C132.433 172.647 134.854 173.413 134.854 174.353V176.924C134.854 177.216 134.608 177.498 134.185 177.735C131.132 178.927 127.765 178.927 124.712 177.735C124.289 177.498 124.043 177.216 124.043 176.924V174.353C124.043 173.413 126.464 172.647 129.449 172.647Z" fill="#78CEB3"/>
<path d="M129.448 170.824C132.635 170.824 135.215 171.636 135.215 172.648V174.006C135.215 175.019 132.635 175.83 129.448 175.83C126.261 175.83 123.682 175.019 123.682 174.006V172.675C123.726 171.636 126.261 170.824 129.448 170.824Z" fill="#87DDC0"/>
<path d="M123.726 172.648C123.726 173.651 126.306 174.471 129.493 174.471C132.68 174.471 135.259 173.66 135.259 172.648C135.259 171.636 132.68 170.824 129.493 170.824C126.306 170.824 123.726 171.636 123.726 172.648Z" fill="#C5EFE1"/>
<path d="M129.449 189.753C132.715 189.753 135.356 188.23 135.356 186.343V188.331C135.356 190.209 132.715 191.741 129.449 191.741C126.182 191.741 123.541 190.209 123.541 188.331V186.343C123.541 188.23 126.182 189.753 129.449 189.753Z" fill="#82E0C6"/>
<path d="M126.763 184.747C128.533 185.148 130.365 185.148 132.134 184.747C134.044 184.291 135.356 183.379 135.356 182.312V186.306C135.356 188.194 132.715 189.716 129.449 189.716C126.182 189.716 123.541 188.194 123.541 186.306V182.312C123.541 183.379 124.853 184.291 126.763 184.747Z" fill="#F5FFFF"/>
<path d="M129.449 181.829C129.449 181.829 133.851 182.03 135.356 180.206V182.312C135.356 183.379 134.044 184.291 132.134 184.747C130.365 185.148 128.533 185.148 126.763 184.747C124.853 184.291 123.541 183.379 123.541 182.312V180.206C125.029 182.03 129.449 181.829 129.449 181.829Z" fill="#82E0C6"/>
<path d="M124.712 177.735C125.512 178.136 126.373 178.389 127.256 178.483C128.718 178.679 130.197 178.679 131.658 178.483C132.542 178.389 133.403 178.136 134.203 177.735C135.84 179.14 135.374 180.206 135.374 180.206C133.886 182.03 129.466 181.829 129.466 181.829C129.466 181.829 125.064 182.03 123.559 180.206C123.541 180.206 123.074 179.14 124.712 177.735Z" fill="#F5FFFF"/>
<path d="M144.583 188.832C144.31 189.489 144.891 190.382 145.868 190.811L149.073 192.242L149.566 191.057L150.059 189.862L147.576 188.75L146.855 188.431C145.877 187.993 144.856 188.176 144.583 188.832Z" fill="#CCCBCA"/>
<path d="M152.885 175.966C151.459 175.428 150.033 175.729 149.637 176.687L144.583 188.832C144.856 188.175 145.877 187.993 146.854 188.431L147.576 188.75L150.059 189.862L162.702 195.497L164.639 196.409L165.193 196.655L165.889 196.965C166.866 197.403 167.888 197.221 168.16 196.564C168.425 195.908 167.852 195.023 166.875 194.585L166.162 194.266L165.598 194.02L169.93 183.607L153.114 176.112L152.885 175.966Z" fill="#F5FFFF"/>
<path d="M169.957 183.571L165.625 193.984L166.188 194.23L166.902 194.549C167.879 194.987 168.451 195.871 168.187 196.528L173.32 184.182C173.646 183.407 172.968 182.358 171.806 181.83L170.855 181.41L169.957 183.571Z" fill="#CCCBCA"/>
<path d="M156.046 187.455C156.113 187.487 156.166 187.545 156.192 187.617C156.219 187.689 156.217 187.768 156.187 187.838L154.972 190.683C154.941 190.753 154.885 190.807 154.816 190.835C154.747 190.862 154.67 190.86 154.602 190.829C154.535 190.797 154.482 190.739 154.456 190.668C154.43 190.596 154.432 190.516 154.461 190.446L155.676 187.601C155.707 187.532 155.763 187.477 155.832 187.45C155.902 187.422 155.978 187.424 156.046 187.455Z" fill="#181028"/>
<path d="M159.277 179.851C159.311 179.865 159.342 179.887 159.368 179.915C159.394 179.942 159.415 179.974 159.429 180.01C159.443 180.045 159.45 180.084 159.449 180.122C159.449 180.16 159.441 180.198 159.427 180.234L156.706 186.616C156.692 186.652 156.671 186.684 156.645 186.711C156.618 186.737 156.587 186.759 156.553 186.773C156.518 186.788 156.481 186.795 156.444 186.794C156.407 186.794 156.371 186.786 156.337 186.771C156.269 186.739 156.217 186.681 156.19 186.61C156.164 186.538 156.166 186.458 156.196 186.388L158.907 180.006C158.938 179.936 158.994 179.881 159.063 179.854C159.133 179.827 159.209 179.829 159.277 179.86V179.851Z" fill="#181028"/>
<path d="M158.062 188.358C158.096 188.372 158.127 188.394 158.153 188.422C158.179 188.449 158.2 188.481 158.214 188.517C158.228 188.552 158.235 188.59 158.234 188.629C158.234 188.667 158.226 188.705 158.212 188.74L156.997 191.594C156.966 191.664 156.91 191.719 156.841 191.746C156.772 191.773 156.695 191.771 156.627 191.74C156.56 191.708 156.507 191.65 156.481 191.579C156.454 191.507 156.456 191.428 156.486 191.357L157.692 188.513C157.723 188.443 157.779 188.388 157.848 188.359C157.916 188.33 157.993 188.33 158.062 188.358Z" fill="#181028"/>
<path d="M160.483 182.605C160.551 182.637 160.603 182.695 160.63 182.766C160.656 182.838 160.654 182.918 160.624 182.988L158.696 187.547C158.665 187.617 158.609 187.671 158.54 187.698C158.471 187.726 158.394 187.724 158.326 187.693C158.259 187.661 158.206 187.603 158.18 187.531C158.154 187.459 158.156 187.38 158.185 187.31L160.114 182.751C160.144 182.681 160.2 182.627 160.27 182.599C160.339 182.572 160.416 182.574 160.483 182.605Z" fill="#181028"/>
<path d="M161.513 183.069C161.581 183.101 161.633 183.159 161.66 183.231C161.686 183.303 161.684 183.382 161.654 183.452L159.726 188.011C159.712 188.047 159.691 188.079 159.664 188.106C159.638 188.133 159.606 188.154 159.572 188.168C159.538 188.183 159.501 188.19 159.464 188.19C159.427 188.189 159.39 188.181 159.356 188.166C159.322 188.151 159.291 188.13 159.265 188.102C159.239 188.075 159.219 188.043 159.205 188.007C159.191 187.971 159.184 187.933 159.184 187.895C159.184 187.857 159.192 187.819 159.207 187.783L161.143 183.224C161.174 183.155 161.23 183.1 161.299 183.073C161.369 183.046 161.445 183.048 161.513 183.078V183.069Z" fill="#181028"/>
<path d="M156.301 189.58C156.335 189.595 156.366 189.617 156.392 189.644C156.418 189.672 156.438 189.704 156.451 189.74C156.464 189.776 156.47 189.814 156.469 189.852C156.467 189.891 156.458 189.928 156.442 189.963L155.958 191.121C155.925 191.191 155.868 191.246 155.797 191.273C155.726 191.3 155.648 191.298 155.579 191.267C155.512 191.235 155.459 191.177 155.433 191.105C155.407 191.034 155.409 190.954 155.438 190.884L155.931 189.735C155.946 189.7 155.967 189.667 155.993 189.641C156.02 189.614 156.051 189.592 156.085 189.578C156.12 189.564 156.156 189.556 156.193 189.557C156.23 189.557 156.267 189.565 156.301 189.58Z" fill="#181028"/>
<path d="M157.182 187.519C157.249 187.551 157.301 187.609 157.328 187.681C157.354 187.753 157.352 187.832 157.322 187.902L156.865 188.969C156.85 189.005 156.829 189.036 156.803 189.063C156.776 189.09 156.745 189.111 156.71 189.124C156.675 189.138 156.638 189.144 156.601 189.143C156.564 189.141 156.528 189.132 156.495 189.115C156.427 189.083 156.375 189.025 156.349 188.953C156.322 188.882 156.324 188.802 156.354 188.732L156.812 187.674C156.826 187.639 156.847 187.607 156.874 187.58C156.9 187.553 156.931 187.532 156.966 187.517C157 187.503 157.037 187.496 157.074 187.496C157.111 187.496 157.147 187.504 157.182 187.519Z" fill="#181028"/>
<path d="M158.344 190.519C158.411 190.551 158.464 190.609 158.49 190.68C158.516 190.752 158.514 190.832 158.485 190.902L157.992 192.06C157.961 192.13 157.905 192.184 157.836 192.211C157.766 192.239 157.69 192.237 157.622 192.206C157.554 192.174 157.502 192.116 157.475 192.044C157.449 191.972 157.451 191.893 157.481 191.823L157.974 190.665C158.005 190.595 158.061 190.541 158.13 190.513C158.199 190.486 158.276 190.488 158.344 190.519Z" fill="#181028"/>
<path d="M159.215 188.458C159.249 188.473 159.28 188.494 159.306 188.522C159.332 188.55 159.352 188.582 159.365 188.618C159.378 188.654 159.384 188.692 159.383 188.73C159.381 188.769 159.372 188.806 159.356 188.841L158.907 189.908C158.876 189.977 158.82 190.032 158.751 190.059C158.682 190.086 158.605 190.084 158.537 190.054C158.47 190.022 158.417 189.964 158.391 189.892C158.365 189.82 158.367 189.741 158.396 189.671L158.845 188.613C158.86 188.577 158.881 188.545 158.907 188.518C158.934 188.492 158.965 188.47 158.999 188.456C159.034 188.441 159.07 188.434 159.107 188.435C159.144 188.435 159.181 188.443 159.215 188.458Z" fill="#181028"/>
<path d="M158.555 184.237C158.589 184.252 158.62 184.273 158.646 184.301C158.672 184.328 158.693 184.36 158.706 184.396C158.72 184.432 158.727 184.47 158.727 184.508C158.727 184.546 158.719 184.584 158.705 184.62L157.771 186.808C157.741 186.878 157.685 186.932 157.615 186.959C157.546 186.987 157.469 186.985 157.402 186.954C157.367 186.939 157.337 186.917 157.311 186.89C157.285 186.862 157.265 186.829 157.252 186.794C157.239 186.758 157.233 186.72 157.234 186.681C157.236 186.643 157.245 186.605 157.261 186.571L158.141 184.383C158.172 184.313 158.228 184.258 158.297 184.231C158.366 184.204 158.443 184.206 158.511 184.237H158.555Z" fill="#181028"/>
<path d="M160.184 180.389C160.252 180.422 160.304 180.482 160.331 180.555C160.357 180.628 160.355 180.709 160.324 180.781L159.233 183.343C159.218 183.378 159.197 183.41 159.171 183.437C159.144 183.464 159.113 183.484 159.078 183.498C159.044 183.512 159.007 183.518 158.97 183.516C158.933 183.515 158.896 183.505 158.863 183.489C158.796 183.457 158.743 183.399 158.717 183.327C158.69 183.256 158.692 183.176 158.722 183.106L159.823 180.571C159.837 180.536 159.858 180.504 159.884 180.477C159.911 180.45 159.942 180.428 159.976 180.414C160.011 180.4 160.048 180.392 160.085 180.393C160.122 180.393 160.158 180.401 160.192 180.416L160.184 180.389Z" fill="#181028"/>
<path d="M153.739 182.085L153.334 183.033L152.419 182.614L151.767 184.155L152.674 184.574L152.278 185.522L153.766 186.197L154.171 185.258L155.077 185.668L155.738 184.127L154.822 183.708L155.227 182.769L153.739 182.085Z" fill="#FF0000"/>
<path d="M182.247 137.196C178.355 146.661 178.84 152.615 176.903 155.104C174.966 157.593 169.208 165.353 167.218 175.228C167.142 175.609 166.923 175.945 166.611 176.161C166.298 176.378 165.915 176.459 165.545 176.386C163.929 176.204 162.295 176.287 160.703 176.632C159.198 176.823 157.754 177.363 156.477 178.209C156.187 178.401 156.222 178.975 156.548 178.866C157.648 178.519 159.849 177.799 159.972 178.018C160.096 178.237 154.884 179.094 155.086 179.842C155.289 180.589 160.087 178.638 160.254 179.094C160.333 179.313 154.822 180.635 154.479 181.264C154.135 181.893 154.734 182.021 154.945 181.993C156.504 181.775 159.303 180.225 160.465 180.17C160.489 180.177 160.51 180.192 160.525 180.212C160.54 180.233 160.548 180.258 160.548 180.284C160.548 180.31 160.54 180.335 160.525 180.355C160.51 180.376 160.489 180.391 160.465 180.398C159.233 180.936 155.253 182.787 155.183 183.99C155.077 185.413 160.272 182.349 161.46 181.921C162.038 181.632 162.702 181.589 163.309 181.802C163.382 181.837 163.444 181.892 163.489 181.961C163.534 182.029 163.561 182.109 163.566 182.192C163.572 182.274 163.556 182.357 163.52 182.431C163.484 182.506 163.429 182.568 163.362 182.613C162.411 183.261 160.272 184.793 160.553 185.194C161.619 186.689 165.836 183.252 167.051 183.37C168.266 183.489 169.965 181.775 170.088 180.215C170.212 178.656 170.256 178.346 172.087 176.431C173.918 174.517 181.824 163 182.449 159.107C182.793 156.992 187.16 150.463 190.611 144.026C187.327 142.489 184.456 140.144 182.247 137.196Z" fill="#804F53"/>
<path d="M190.109 119.188L181.631 136.285C181.631 136.285 181.842 136.64 182.247 137.197C184.466 140.131 187.344 142.459 190.629 143.981C191.201 144.245 191.791 144.5 192.39 144.719L197.012 134.917C197.012 134.917 190.549 122.38 190.109 119.188Z" fill="#F78195"/>
<path d="M194.176 116.306L191.535 127.285L196.193 138.454L208.598 121.358L205.736 116.689L209.584 115.54L203.271 110.225L194.176 116.306Z" fill="#804F53"/>
<path d="M232.114 171.645C219.031 187.629 194.458 179.696 194.458 179.696C194.458 179.696 184.21 225.979 183.471 228.806C183.25 229.622 183.202 230.478 183.329 231.315C183.457 232.152 183.757 232.951 184.21 233.657L182.45 232.38C182.45 232.38 177.264 246.705 176.287 256.424C175.616 262.458 173.768 268.287 170.854 273.557C171.732 274.141 172.667 274.624 173.645 274.998C174.999 275.546 176.423 275.887 177.871 276.01C178.909 276.101 179.954 276.052 180.979 275.864C180.979 275.864 187.397 258.467 191.104 252.841C194.811 247.215 195.797 234.432 198.271 230.046C200.745 225.66 208.888 199.61 208.888 199.61C208.888 199.61 213.951 199.099 216.266 195.169C216.266 195.169 207.902 228.769 207.647 233.885C207.392 239 204.196 244.881 204.442 252.039C204.689 259.196 207.4 271.989 207.4 275.572C209.157 276.561 211.102 277.136 213.097 277.259C214.665 277.35 216.235 277.095 217.701 276.512C218.327 276.261 218.93 275.956 219.506 275.6C219.506 275.6 220.985 243.623 223.706 236.21L220.985 236.976L224.692 234.678C224.692 234.678 240.513 179.185 232.114 171.645Z" fill="#5CA9C7"/>
<path d="M217.851 276.885L217.719 276.548C216.252 277.131 214.683 277.386 213.114 277.296C213.291 278.238 213.264 279.21 213.035 280.14C213.035 280.222 212.982 280.305 212.947 280.377C214.355 280.979 215.65 282.529 216.741 283.66C218.502 285.484 222.79 287.435 225.757 287.754C226.403 287.874 227.069 287.773 227.654 287.467C228.24 287.162 228.714 286.667 229.006 286.058C226.593 285.11 218.978 279.52 217.851 276.885Z" fill="#804F53"/>
<path d="M213.871 195.588L206.37 196.737L205.094 211.49L208.906 199.637C210.404 199.527 211.853 199.035 213.123 198.205L213.871 195.579" fill="#468A9E"/>
<path d="M213.158 198.114L214.752 192.616L216.416 191.969L217.921 181.173" stroke="#181028" stroke-linecap="round" stroke-linejoin="round"/>
<path d="M203.615 181.437C200.516 181.157 197.45 180.574 194.458 179.695C194.458 179.695 193.93 182.093 193.103 185.823C195.952 186.376 198.841 186.681 201.739 186.734C202.712 185.122 203.35 183.318 203.615 181.437Z" fill="#181028"/>
<path d="M213.599 186.598C214.214 184.831 214.625 182.994 214.822 181.127C212.163 181.548 209.472 181.71 206.784 181.61C206.612 183.377 206.215 185.112 205.604 186.771C208.259 187.186 210.963 187.127 213.599 186.598Z" fill="#181028"/>
<path d="M221.126 185.066C221.126 185.066 225.695 184.555 228.539 181.355C229.023 179.343 229.023 177.239 228.539 175.228C226.283 177.063 223.756 178.51 221.056 179.513C221.27 181.356 221.293 183.218 221.126 185.066Z" fill="#181028"/>
<path d="M232.114 171.645C231.509 172.383 230.866 173.087 230.186 173.751C231.066 175.772 231.394 178.005 231.136 180.206C232.469 179.615 233.587 178.604 234.332 177.316C233.989 174.681 233.285 172.693 232.114 171.645Z" fill="#181028"/>
<path d="M212.718 187.437C212.718 187.437 219.524 186.762 221.654 185.613C221.976 183.466 222.106 181.293 222.042 179.121C219.415 180.202 216.667 180.935 213.863 181.3C213.722 182.276 213.326 184.774 212.718 187.437Z" fill="#C6770E"/>
<path d="M192.478 187.82C192.478 187.82 220.263 193.765 234.429 180.243" stroke="#181028" stroke-linecap="round" stroke-linejoin="round"/>
<path d="M190.215 200.193L200.929 189.114" stroke="#181028" stroke-linecap="round" stroke-linejoin="round"/>
<path d="M231.004 182.924L233.302 194.075" stroke="#181028" stroke-linecap="round" stroke-linejoin="round"/>
<path d="M215.729 190.555C215.729 190.736 215.677 190.912 215.581 191.062C215.484 191.212 215.346 191.329 215.186 191.398C215.025 191.467 214.848 191.485 214.677 191.45C214.506 191.414 214.349 191.328 214.226 191.2C214.103 191.073 214.019 190.91 213.985 190.733C213.951 190.556 213.969 190.373 214.035 190.206C214.102 190.04 214.215 189.897 214.36 189.797C214.504 189.697 214.675 189.644 214.849 189.644C215.082 189.644 215.306 189.74 215.471 189.911C215.636 190.082 215.729 190.314 215.729 190.555Z" fill="#181028"/>
<path d="M172.976 276.885C171.849 279.521 164.234 285.092 161.821 286.058C162.112 286.667 162.586 287.162 163.172 287.468C163.758 287.774 164.424 287.874 165.07 287.754C168.037 287.435 172.289 285.511 174.085 283.66C175.177 282.53 176.471 280.98 177.88 280.378C177.88 280.305 177.827 280.223 177.792 280.141C177.457 279.384 177.642 277.551 177.889 276.01C176.44 275.887 175.017 275.546 173.663 274.998C173.469 275.64 173.24 276.271 172.976 276.885Z" fill="#804F53"/>
<path d="M157.534 289.924C166.611 293.188 172.166 288.328 172.166 288.328L172.853 287.116L173.223 288.027L177.625 287.198C177.572 286.293 177.658 285.385 177.88 284.508C178.223 282.684 178.399 281.69 177.88 280.396C176.471 280.997 175.177 282.547 174.085 283.678C172.325 285.502 168.037 287.453 165.07 287.772C164.424 287.892 163.758 287.791 163.172 287.486C162.587 287.18 162.112 286.685 161.821 286.076L161.584 286.158C159.515 286.733 157.534 289.924 157.534 289.924Z" fill="#181028"/>
<path d="M233.285 289.924C224.216 293.188 218.661 288.328 218.661 288.328L217.974 287.116L217.604 288.027L213.202 287.198C213.256 286.293 213.173 285.386 212.956 284.508C212.612 282.684 212.436 281.69 212.956 280.396C214.364 280.997 215.659 282.547 216.75 283.678C218.511 285.502 222.799 287.453 225.766 287.772C226.412 287.892 227.078 287.791 227.663 287.486C228.249 287.18 228.723 286.685 229.014 286.076L229.287 286.176C231.312 286.733 233.285 289.924 233.285 289.924Z" fill="#181028"/>
<path d="M185.161 234.432C185.161 234.432 186.552 235.963 189.519 235.48" stroke="#181028" stroke-linecap="round" stroke-linejoin="round"/>
<path d="M219.691 237.878C217.765 238.763 215.596 238.899 213.581 238.261" stroke="#181028" stroke-linecap="round" stroke-linejoin="round"/>
<path d="M211.239 105.62C211.239 105.62 218.168 126.473 224.445 133.084C224.445 133.084 223.45 152.578 224.445 154.967C225.44 157.356 234.561 168.444 235.442 174.252C235.442 174.252 213.431 191.066 192.477 181.811C192.477 181.811 198.033 159.982 197.038 156.335C196.043 152.688 188.014 147.563 187.688 141.746C187.362 135.929 190.109 119.179 190.109 119.179C190.109 119.179 207.603 106.997 211.239 105.62Z" fill="#F77081"/>
<path d="M196.201 126.793C195.396 130.636 195.396 134.612 196.201 138.455C197.566 144.436 205.886 148.485 207.823 152.333C213.986 164.341 216.874 182.924 216.874 182.924" stroke="#181028" stroke-linecap="round" stroke-linejoin="round"/>
<path d="M196.228 103.085C196.228 103.085 193.587 103.158 193.006 99.675C192.425 96.1919 188.824 94.4229 187.574 96.1645C186.323 97.9061 189.704 99.675 189.704 99.675V101.262C189.704 101.262 188.234 101.863 186.103 100.35C183.973 98.8361 179.72 91.7605 178.479 97.6872C177.238 103.614 173.637 103.997 173.637 103.997C175.979 107.79 179.21 107.79 181.261 112.048C183.312 116.306 186.271 115.695 187.424 115.458C188.762 115.194 192.566 112.96 192.566 112.96L194.159 116.306L196.184 126.792C196.184 126.792 202.233 122.379 203.227 110.225L196.228 103.085Z" fill="#804F53"/>
<path d="M183.823 106.304C183.973 106.479 184.169 106.605 184.388 106.665C184.606 106.725 184.837 106.717 185.051 106.641C185.265 106.565 185.452 106.426 185.59 106.24C185.727 106.054 185.808 105.83 185.823 105.596C185.838 105.363 185.785 105.13 185.672 104.927C185.559 104.724 185.391 104.561 185.188 104.457C184.986 104.353 184.758 104.314 184.534 104.344C184.31 104.374 184.099 104.472 183.929 104.626C183.701 104.835 183.562 105.128 183.542 105.442C183.523 105.757 183.623 106.066 183.823 106.304Z" fill="#181028"/>
<path d="M186.235 102.511C186.328 102.447 186.394 102.35 186.42 102.238C186.438 102.175 186.443 102.109 186.435 102.044C186.428 101.979 186.408 101.916 186.377 101.859C186.345 101.803 186.304 101.753 186.254 101.713C186.204 101.673 186.147 101.643 186.086 101.627C185.927 101.627 182.326 100.605 180.363 103.45C180.29 103.558 180.262 103.691 180.283 103.821C180.305 103.951 180.374 104.066 180.477 104.143C180.529 104.182 180.587 104.209 180.648 104.224C180.71 104.239 180.774 104.24 180.836 104.229C180.898 104.218 180.958 104.195 181.011 104.159C181.064 104.124 181.111 104.078 181.147 104.025C182.722 101.718 185.795 102.557 185.83 102.566C185.897 102.589 185.969 102.596 186.039 102.587C186.109 102.577 186.176 102.551 186.235 102.511Z" fill="#562A35"/>
<path d="M179.738 109.751C179.928 109.522 180.027 109.226 180.015 108.925C180.002 108.623 179.878 108.338 179.669 108.127C179.46 107.916 179.182 107.796 178.89 107.791C178.598 107.786 178.316 107.897 178.1 108.1L178.012 108.191L179.007 109.012L179.738 109.751Z" fill="#181028"/>
<path d="M176.392 106.979C176.718 106.497 177.172 106.125 177.699 105.908C178.227 105.691 178.804 105.638 179.359 105.757C179.432 105.782 179.509 105.788 179.584 105.775C179.659 105.762 179.73 105.731 179.791 105.684C179.873 105.627 179.934 105.544 179.967 105.447C179.988 105.385 179.997 105.319 179.993 105.253C179.989 105.187 179.973 105.123 179.945 105.064C179.917 105.004 179.878 104.951 179.831 104.908C179.783 104.864 179.728 104.83 179.668 104.809C178.923 104.619 178.14 104.666 177.421 104.942C176.703 105.219 176.08 105.712 175.635 106.359" fill="#562A35"/>
<path d="M187.688 112.45C187.962 112.256 188.196 112.009 188.376 111.72C188.556 111.432 188.678 111.11 188.736 110.772C188.798 110.11 188.629 109.447 188.26 108.903C188.177 108.805 188.063 108.742 187.939 108.723C187.815 108.705 187.688 108.733 187.582 108.802C187.481 108.884 187.415 109.002 187.397 109.133C187.379 109.264 187.411 109.397 187.485 109.504C187.611 109.665 187.701 109.852 187.751 110.051C187.8 110.251 187.808 110.46 187.773 110.663C187.738 110.866 187.661 111.059 187.548 111.229C187.434 111.399 187.287 111.541 187.116 111.647C187.064 111.685 187.021 111.733 186.988 111.789C186.955 111.844 186.933 111.906 186.923 111.971C186.913 112.035 186.916 112.101 186.931 112.164C186.946 112.228 186.973 112.288 187.01 112.34C187.047 112.395 187.094 112.441 187.148 112.476C187.202 112.511 187.263 112.534 187.326 112.545C187.39 112.555 187.454 112.552 187.517 112.535C187.579 112.519 187.637 112.49 187.688 112.45Z" fill="#562A35"/>
<path d="M184.747 110.553C184.798 110.514 184.84 110.464 184.871 110.408C184.902 110.351 184.922 110.289 184.93 110.224C184.937 110.159 184.932 110.093 184.914 110.031C184.896 109.968 184.867 109.91 184.827 109.86C184.748 109.757 184.635 109.691 184.51 109.674C184.385 109.657 184.259 109.691 184.158 109.769C184.025 109.878 183.872 109.956 183.708 109.999C183.544 110.041 183.373 110.047 183.207 110.015C182.784 109.869 182.538 109.258 182.405 108.766C181.631 105.93 180.539 105.337 180.416 105.283C180.359 105.255 180.298 105.239 180.235 105.236C180.173 105.233 180.11 105.243 180.051 105.265C179.992 105.287 179.938 105.321 179.892 105.364C179.846 105.408 179.808 105.461 179.782 105.52C179.727 105.639 179.721 105.777 179.764 105.901C179.807 106.026 179.896 106.128 180.011 106.185C180.011 106.185 180.83 106.678 181.481 109.039C181.541 109.46 181.705 109.858 181.956 110.195C182.208 110.532 182.538 110.796 182.916 110.963C183.231 111.042 183.56 111.047 183.877 110.976C184.194 110.905 184.492 110.76 184.747 110.553Z" fill="#562A35"/>
<path d="M190.637 97.4777C190.661 97.4391 190.676 97.3955 190.681 97.3501C190.692 97.2956 190.691 97.2395 190.68 97.1851C190.669 97.1308 190.648 97.0792 190.618 97.0334C190.587 96.9876 190.549 96.9485 190.504 96.9183C190.459 96.8881 190.408 96.8675 190.356 96.8577C190.067 96.7838 189.763 96.8173 189.495 96.9523C189.228 97.0873 189.015 97.3152 188.894 97.5963C188.856 97.7002 188.859 97.8158 188.902 97.9176C188.946 98.0193 189.027 98.0989 189.127 98.1388C189.228 98.1787 189.339 98.1756 189.438 98.1303C189.536 98.085 189.613 98.0011 189.651 97.8972C189.651 97.8333 189.81 97.6145 190.215 97.6874C190.298 97.7051 190.384 97.6941 190.46 97.6563C190.536 97.6184 190.599 97.5557 190.637 97.4777Z" fill="#562A35"/>
<path d="M191.386 99.3563C191.422 99.2866 191.438 99.2071 191.43 99.1283C191.351 98.6595 191.162 98.218 190.88 97.8427C190.597 97.4674 190.23 97.1699 189.81 96.9764C189.762 96.9506 189.71 96.9354 189.657 96.9316C189.603 96.9278 189.549 96.9356 189.499 96.9545C189.448 96.9733 189.402 97.0028 189.363 97.0412C189.324 97.0795 189.294 97.1257 189.273 97.177C189.249 97.2265 189.236 97.2805 189.233 97.3356C189.23 97.3907 189.237 97.4459 189.255 97.4978C189.274 97.5497 189.302 97.5974 189.338 97.6378C189.374 97.6783 189.418 97.7107 189.467 97.7332C189.467 97.7332 190.576 98.2894 190.62 99.1739C190.627 99.2843 190.674 99.3878 190.753 99.4626C190.832 99.5373 190.936 99.5777 191.042 99.5751C191.112 99.5696 191.18 99.5468 191.24 99.5088C191.299 99.4707 191.35 99.4184 191.386 99.3563Z" fill="#562A35"/>
<g style="mix-blend-mode:multiply">
<path d="M187.6 106.532C187.6 106.532 186.182 106.532 186.323 107.444C186.491 108.52 189.246 107.307 189.246 107.307C189.246 107.307 188.472 104.444 187.485 104.982C186.499 105.52 187.6 106.532 187.6 106.532Z" fill="#FF7694"/>
</g>
<g style="mix-blend-mode:multiply">
<path d="M181.833 113.024C182.274 112.878 182.555 112.751 182.555 112.751C182.555 112.751 181.781 109.897 180.794 110.435C180.676 110.501 180.571 110.591 180.486 110.699C180.758 111.076 180.999 111.476 181.208 111.894C181.56 112.605 181.833 113.024 181.833 113.024Z" fill="#FF7694"/>
</g>
<path d="M192.565 112.961C192.565 112.961 194.546 110.453 194.687 108.019C194.687 108.019 196.448 112.578 194.177 116.307L192.565 112.961Z" fill="#562A35"/>
<path d="M193.041 69.4031C187.6 66.3303 181.217 67.5795 178.778 72.2114C176.903 75.7857 177.898 80.3083 181.006 83.609L181.05 83.5087C182.309 81.1289 185.601 80.4815 188.41 82.059C189.43 82.5742 190.282 83.3876 190.861 84.3987C191.44 85.4099 191.72 86.5744 191.668 87.7487C193.063 87.6394 194.413 87.1807 195.6 86.412C196.787 85.6433 197.776 84.5875 198.482 83.3355C200.912 78.7126 198.473 72.4759 193.041 69.4031Z" fill="#48213E"/>
<path d="M188.41 82.0596C185.601 80.4822 182.308 81.1478 181.049 83.5094L181.005 83.6097C181.412 84.039 181.844 84.441 182.3 84.8133C182.985 84.7724 183.673 84.8338 184.342 84.9956C186.175 85.4521 187.862 86.3948 189.237 87.7311C190.045 87.8177 190.859 87.8177 191.667 87.7311C191.717 86.5599 191.435 85.3992 190.856 84.3917C190.277 83.3841 189.427 82.5736 188.41 82.0596Z" fill="#5CA9C7"/>
<path d="M189.238 87.7484C187.863 86.4122 186.176 85.4694 184.342 85.013C183.674 84.8511 182.986 84.7897 182.3 84.8306C174.314 85.2957 171.462 100.496 173.637 103.979C173.637 103.979 177.229 103.596 178.479 97.6689C179.729 91.7421 183.981 98.8087 186.103 100.331C188.225 101.854 189.704 101.243 189.704 101.243V99.6749C189.704 99.6749 186.323 97.9151 187.574 96.1644C188.824 94.4137 192.416 96.1644 193.006 99.6749C193.596 103.185 196.228 103.085 196.228 103.085C196.228 103.085 194.722 92.964 189.238 87.7484Z" fill="#48213E"/>
<path d="M231.92 124.084C226.25 114.839 220.73 110.252 217.05 108.018C216.526 107.699 215.928 107.531 215.32 107.533C214.712 107.535 214.116 107.706 213.594 108.029C213.072 108.351 212.643 108.814 212.353 109.367C212.062 109.92 211.921 110.544 211.943 111.173C212.01 113.3 212.553 115.382 213.528 117.255C216.495 122.999 226.664 134.251 226.664 134.251L203.289 136.266C203.289 136.266 195.779 136.357 195.022 137.707C194.265 139.056 192.926 143.688 192.592 144.372C192.257 145.056 194.133 145.193 194.846 143.296C194.846 143.296 195.312 144.791 196.888 143.934C196.888 143.934 198.165 145.357 199.283 144.144C199.414 144.292 199.573 144.411 199.749 144.495C199.926 144.578 200.117 144.623 200.311 144.628C200.505 144.634 200.698 144.598 200.878 144.524C201.058 144.451 201.223 144.34 201.361 144.199C202.452 143.159 202.408 142.813 203.342 142.995C204.275 143.178 205.983 142.731 206.458 141.874C206.458 141.874 237.37 144.956 239.914 142.785C242.458 140.615 241.754 140.114 231.92 124.084Z" fill="#804F53"/>
<path d="M194.854 143.297L196.202 139.54" stroke="#562A35" stroke-linecap="round" stroke-linejoin="round"/>
<path d="M196.897 143.934L198.077 140.205" stroke="#562A35" stroke-linecap="round" stroke-linejoin="round"/>
<path d="M199.292 144.144L199.97 141.254" stroke="#562A35" stroke-linecap="round" stroke-linejoin="round"/>
<path d="M226.673 134.251C226.673 134.251 228.795 133.959 232.536 136.923C232.536 136.923 230.071 131.342 222.104 128.972L226.673 134.251Z" fill="#562A35"/>
<path d="M211.239 105.621C209.425 107.773 208.994 117.356 219.418 129.209C219.418 129.209 227.482 125.106 230.564 119.179C230.564 119.188 217.138 98.5998 211.239 105.621Z" fill="#F78195"/>
<path d="M106.241 185.367C110.636 185.367 114.2 184.06 114.2 182.449C114.2 180.838 110.636 179.531 106.241 179.531C101.845 179.531 98.2817 180.838 98.2817 182.449C98.2817 184.06 101.845 185.367 106.241 185.367Z" fill="#CCCBCA"/>
<path d="M102.596 167.842C102.607 167.775 102.631 167.71 102.666 167.651L103.864 162.837C103.867 162.66 103.933 162.492 104.048 162.362L105.404 158.816C105.404 158.205 106.734 157.703 108.371 157.703C110.009 157.703 111.338 158.205 111.338 158.816L112.694 162.362C112.806 162.494 112.872 162.661 112.879 162.837L114.041 167.624C114.071 167.681 114.092 167.742 114.103 167.806C114.111 167.869 114.111 167.934 114.103 167.997V182.668C114.103 183.863 111.514 184.839 108.327 184.839C105.14 184.839 102.596 183.909 102.596 182.714V168.043C102.587 167.977 102.587 167.909 102.596 167.842Z" fill="#F5FFFF"/>
<path d="M108.38 152.815C110.625 152.815 112.439 153.499 112.439 154.338V158.396C112.439 159.244 110.625 159.928 108.38 159.928C106.135 159.928 104.357 159.244 104.357 158.396V154.338C104.357 153.499 106.118 152.815 108.38 152.815Z" fill="#78CEB3"/>
<path d="M104.357 154.338C104.357 155.186 106.171 155.861 108.416 155.861C110.661 155.861 112.474 155.186 112.474 154.338C112.474 153.49 110.661 152.815 108.416 152.815C106.171 152.815 104.357 153.499 104.357 154.338Z" fill="#C5EFE1"/>
<path d="M108.38 157.092C109.477 157.119 110.569 156.924 111.594 156.517C111.656 156.489 111.704 156.437 111.729 156.372C111.754 156.307 111.753 156.235 111.726 156.171C111.699 156.107 111.649 156.057 111.586 156.031C111.523 156.006 111.453 156.007 111.391 156.034C110.43 156.411 109.408 156.591 108.38 156.563C107.363 156.589 106.351 156.416 105.396 156.052C105.335 156.028 105.267 156.028 105.207 156.053C105.146 156.079 105.097 156.127 105.07 156.189C105.056 156.221 105.048 156.255 105.047 156.29C105.045 156.325 105.051 156.36 105.064 156.392C105.076 156.425 105.095 156.454 105.118 156.479C105.142 156.503 105.171 156.523 105.202 156.536C106.218 156.929 107.296 157.118 108.38 157.092Z" fill="#1F143A"/>
<path d="M108.38 158.569C109.476 158.595 110.567 158.403 111.594 158.004C111.655 157.976 111.704 157.924 111.729 157.859C111.753 157.794 111.752 157.721 111.726 157.657C111.713 157.625 111.695 157.595 111.671 157.571C111.647 157.546 111.618 157.527 111.587 157.514C111.556 157.501 111.522 157.495 111.488 157.496C111.455 157.497 111.422 157.506 111.391 157.521C109.448 158.208 107.339 158.208 105.395 157.521C105.365 157.507 105.332 157.501 105.299 157.501C105.266 157.501 105.233 157.508 105.203 157.522C105.172 157.535 105.145 157.555 105.122 157.58C105.099 157.605 105.081 157.634 105.07 157.666C105.055 157.697 105.048 157.731 105.047 157.765C105.045 157.8 105.051 157.834 105.064 157.865C105.076 157.897 105.095 157.926 105.119 157.95C105.142 157.974 105.171 157.992 105.202 158.004C106.217 158.4 107.296 158.592 108.38 158.569Z" fill="#1F143A"/>
<path d="M108.354 170.213C111.541 170.213 114.13 169.237 114.13 168.043V182.714C114.13 183.908 111.541 184.884 108.354 184.884C105.167 184.884 102.596 183.908 102.596 182.714V168.043C102.596 169.237 105.158 170.213 108.354 170.213Z" fill="#82E0C6"/>
<path d="M108.354 170.213C111.541 170.213 114.13 169.237 114.13 168.043V180.544C114.13 181.738 111.541 182.714 108.354 182.714C105.167 182.714 102.596 181.738 102.596 180.544V168.043C102.596 169.237 105.158 170.213 108.354 170.213Z" fill="#F5FFFF"/>
<path d="M108.354 170.213C105.158 170.213 102.578 169.237 102.578 168.042C102.569 167.976 102.569 167.908 102.578 167.842C102.59 167.774 102.614 167.709 102.649 167.65L103.846 162.836C103.838 162.782 103.838 162.726 103.846 162.672C106.742 163.736 109.904 163.736 112.8 162.672C112.808 162.735 112.808 162.8 112.8 162.863L114.041 167.623C114.071 167.68 114.092 167.742 114.103 167.805C114.111 167.869 114.111 167.933 114.103 167.997C114.129 169.237 111.541 170.213 108.354 170.213Z" fill="#82E0C6"/>
<path opacity="0.2" d="M195.083 294C220.431 294 240.979 292.13 240.979 289.824C240.979 287.517 220.431 285.647 195.083 285.647C169.736 285.647 149.188 287.517 149.188 289.824C149.188 292.13 169.736 294 195.083 294Z" fill="#011456"/>
</g>
<path d="M446.853 599.202C457.742 600.093 476.55 601.677 491.498 602.37C500.408 602.766 505.555 601.875 508.525 600.687C508.525 600.984 508.525 601.38 508.525 601.677C508.426 603.261 507.139 604.449 505.555 604.548C477.441 606.132 455.069 605.043 447.149 604.647C445.467 604.548 444.477 602.766 445.368 601.38C445.764 600.588 446.259 599.895 446.853 599.202Z" fill="url(#paint1_linear_136_800)"/>
<path d="M491.498 602.271C476.649 601.578 457.741 600.093 446.852 599.103C457.543 586.036 491.498 577.226 491.498 577.226H501.1C507.733 586.729 508.624 595.737 508.525 600.588C505.555 601.776 500.407 602.667 491.498 602.271Z" fill="url(#paint2_linear_136_800)"/>
<path d="M502.684 561.585L501.793 579.305C501.694 581.186 500.209 582.868 498.328 583.165C496.447 583.462 493.873 583.462 491.102 582.571C489.419 581.977 488.231 580.592 487.835 578.909L484.766 561.585H502.684Z" fill="url(#paint3_linear_136_800)"/>
<path d="M627.118 602.171C631.87 601.478 633.948 599.102 634.839 596.43C634.839 596.43 634.839 596.43 634.839 596.529C635.532 599.3 633.948 602.171 630.682 603.557C626.821 605.24 622.564 605.438 619.298 605.339C615.734 605.24 612.467 603.755 610.685 601.379C614.249 603.062 619.298 603.26 627.118 602.171Z" fill="url(#paint4_linear_136_800)"/>
<path d="M604.845 561.486H612.764C624.841 561.288 632.365 586.63 634.839 596.43C633.948 599.004 631.771 601.479 627.118 602.171C619.298 603.26 614.249 603.062 610.685 601.281C604.152 592.767 600.984 580.195 599.4 572.87C597.717 564.554 604.845 561.486 604.845 561.486Z" fill="url(#paint5_linear_136_800)"/>
<path d="M611.774 544.954L616.13 562.377C616.625 564.555 615.635 566.732 613.655 567.722C611.18 569.009 607.715 570.296 604.548 569.9C603.063 569.702 601.776 568.712 601.281 567.227L594.846 548.914L611.774 544.954Z" fill="url(#paint6_linear_136_800)"/>
<path d="M617.021 550.003C611.576 554.853 593.757 555.447 593.757 555.447C529.808 401.91 503.575 380.131 503.575 380.131C512.781 438.042 505.06 566.336 505.06 566.336C494.468 570.989 480.906 566.336 480.906 566.336C480.015 471.501 465.463 388.744 448.238 323.508C491.498 322.518 514.464 307.768 521.988 301.828C558.12 360.036 617.021 550.003 617.021 550.003Z" fill="url(#paint7_linear_136_800)"/>
<path d="M511.098 125.325C519.315 166.11 516.345 239.166 514.464 272.527C513.969 281.931 539.509 311.431 559.011 370.133C559.506 371.717 559.308 373.301 557.922 373.994C549.112 378.548 498.328 382.211 463.582 383.992C461.305 384.091 459.028 382.606 458.632 380.33C439.824 281.733 392.901 165.714 390.426 166.605C423.391 113.842 511.098 125.325 511.098 125.325Z" fill="#7D97F4"/>
<path d="M562.377 242.432C559.705 261.439 551.983 282.227 536.441 304.204L530.502 299.353C530.502 299.353 537.332 271.734 533.472 240.255C543.074 238.572 554.359 240.452 562.377 242.432Z" fill="url(#paint8_linear_136_800)"/>
<path d="M501.893 175.711L511 125.324C511 125.324 572.079 172.049 562.377 242.432C554.359 240.453 543.074 238.473 533.471 240.354C530.7 217.783 522.384 193.233 501.893 175.711Z" fill="#7D97F4"/>
<path d="M390.327 166.604C401.613 175.217 408.245 195.114 413.888 217.388C410.027 248.075 393.594 261.241 375.875 266.389C374.786 252.431 371.222 241.146 367.955 233.326C390.624 209.864 390.327 166.604 390.327 166.604Z" fill="#7D97F4"/>
<path d="M367.955 233.325C371.222 241.146 374.786 252.431 375.875 266.389C328.556 284.801 315.984 249.164 315.984 249.164L324.695 247.58C344.494 249.659 358.254 243.323 367.955 233.325Z" fill="url(#paint9_linear_136_800)"/>
<path d="M412.007 103.942L423.391 145.816C424.678 150.469 429.727 153.042 434.28 151.261C439.131 149.281 445.367 146.608 450.713 143.737C456.356 140.668 458.137 133.343 454.574 127.997L430.914 92.7559L412.007 103.942Z" fill="url(#paint10_linear_136_800)"/>
<path d="M294.206 221.149L585.838 327.27C598.113 331.724 603.954 345.682 598.509 357.462L597.618 359.442C592.867 369.935 580.493 374.489 570 369.638L286.881 238.671L294.206 221.149Z" fill="url(#paint11_linear_136_800)"/>
<g opacity="0.28">
<path d="M155.338 308.257C75.0356 308.257 9.93781 244.323 9.93781 165.457C9.93781 86.591 75.0356 22.6572 155.338 22.6572C235.64 22.6572 300.738 86.591 300.738 165.457C300.738 244.323 235.64 308.257 155.338 308.257Z" fill="#7D97F4"/>
</g>
<path d="M160.17 0C248.669 0 320.34 70.3837 320.34 157.299C320.34 244.215 248.669 314.599 160.17 314.599C71.6704 314.599 -0.000274658 244.215 -0.000274658 157.299C-0.000274658 70.3837 71.7694 0 160.17 0ZM160.17 291.434C235.602 291.434 296.78 231.346 296.78 157.2C296.78 83.0548 235.602 22.9663 160.17 22.9663C84.7374 22.9663 23.56 83.0548 23.56 157.2C23.56 231.445 84.7374 291.434 160.17 291.434Z" fill="url(#paint12_linear_136_800)"/>
<path d="M308.164 176.603C308.659 176.603 309.055 176.207 309.055 175.811C309.55 172.049 309.847 168.288 310.045 164.526C310.045 164.031 309.649 163.536 309.154 163.536C308.659 163.437 308.164 163.932 308.164 164.427C307.966 168.09 307.669 171.851 307.174 175.514C307.075 176.009 307.471 176.504 307.966 176.603C308.164 176.603 308.164 176.603 308.164 176.603ZM307.075 132.65C307.174 132.65 307.174 132.65 307.273 132.65C307.768 132.551 308.164 132.056 308.065 131.561C306.283 121.464 303.313 111.565 299.453 102.062C276.288 46.0317 221.743 9.89941 160.17 9.89941C131.462 9.89941 103.645 17.8188 79.5901 32.9647C79.1942 33.2617 78.9961 33.8556 79.2931 34.2516C79.5901 34.6476 80.1841 34.8456 80.58 34.5486C104.338 19.6997 131.858 11.7803 160.17 11.7803C220.853 11.7803 274.804 47.5166 297.572 102.754C301.433 112.159 304.303 121.959 306.085 131.957C306.283 132.353 306.679 132.65 307.075 132.65Z" fill="#7D97F4"/>
<path d="M387.159 72.1656C387.06 72.8586 396.663 119.88 396.663 119.88L423.391 113.842L420.916 67.9089C420.916 67.9089 388.842 60.1875 387.159 72.1656Z" fill="url(#paint13_linear_136_800)"/>
<path d="M414.878 78.2043L418.045 102.26C418.045 102.556 418.045 102.853 418.045 103.15C417.748 105.031 416.363 111.466 409.928 109.585C404.087 107.902 398.643 106.516 394.881 107.605C393.198 108.1 392.208 109.783 392.505 111.565C393.396 115.821 395.475 125.424 398.643 133.442C399.237 135.026 401.019 135.917 402.702 135.422C407.75 133.937 418.342 130.571 426.262 125.82C427.351 125.226 427.945 124.038 427.945 122.751C427.648 116.712 426.955 98.2008 427.549 93.0532C428.143 88.2025 434.082 85.2328 436.656 84.2428C437.547 83.9459 438.141 83.2529 438.537 82.362C439.725 79.3922 441.408 72.3637 432.597 69.5919C430.716 68.998 429.826 67.0181 430.419 65.2363C431.706 61.5735 432.3 56.1289 425.47 53.0602C418.54 49.9914 413.393 53.6541 410.621 56.6239C409.532 57.8118 407.651 58.0098 406.265 57.1189C405.473 56.6239 404.483 56.4259 403.197 57.2179C401.514 58.2078 399.336 57.5148 398.445 55.832C396.762 52.4662 393.396 48.8035 386.665 49.9914C374.687 52.0702 373.301 65.3353 376.468 73.0567C379.636 80.8771 392.505 77.9073 398.94 73.9476C403.889 70.9778 410.225 74.0466 412.997 75.7295C414.185 76.2244 414.779 77.2144 414.878 78.2043Z" fill="url(#paint14_linear_136_800)"/>
<path d="M428.736 101.864C428.736 101.864 423.787 88.1039 428.835 84.7381C433.884 81.3724 441.407 83.1542 439.725 93.1525C437.745 105.527 428.736 101.864 428.736 101.864Z" fill="url(#paint15_linear_136_800)"/>
<path d="M532.976 298.661L505.456 296.384L493.478 307.372C493.478 307.372 496.349 311.233 505.159 309.055C513.969 306.778 526.047 306.283 526.047 306.283C526.047 306.283 538.223 311.827 538.421 301.531L532.976 298.661Z" fill="url(#paint16_linear_136_800)"/>
<path d="M319.449 255.697C317.073 257.578 308.857 253.718 303.907 250.946C301.432 249.659 300.244 246.788 301.135 244.115C302.323 240.354 304.303 235.404 306.778 234.81C310.936 233.82 329.249 247.976 319.449 255.697Z" fill="url(#paint17_linear_136_800)"/>
<path d="M580.097 365.481C580.196 365.481 580.295 365.481 580.394 365.382C591.679 361.422 594.352 354.79 594.549 349.84C594.846 342.614 590.392 335.981 583.363 333.209L548.32 319.548C547.825 319.35 547.33 319.647 547.132 320.043C546.934 320.538 547.231 321.033 547.627 321.231L582.67 334.892C588.907 337.367 592.966 343.307 592.669 349.642C592.372 355.978 588.016 360.531 579.8 363.402C579.305 363.6 579.008 364.095 579.206 364.59C579.305 365.184 579.701 365.481 580.097 365.481Z" fill="#7D97F4"/>
<path d="M537.233 317.271C537.629 317.271 537.926 317.073 538.124 316.677C538.321 316.182 538.025 315.687 537.629 315.489L533.075 313.708C532.58 313.51 532.085 313.807 531.887 314.203C531.689 314.697 531.986 315.192 532.382 315.39L536.936 317.172C536.936 317.271 537.134 317.271 537.233 317.271Z" fill="#7D97F4"/>
<defs>
<linearGradient id="paint0_linear_136_800" x1="131.184" y1="64.4274" x2="196.141" y2="240.76" gradientUnits="userSpaceOnUse">
<stop offset="0.02" stop-color="#BCE5DD"/>
<stop offset="1" stop-color="#92E5DD"/>
</linearGradient>
<linearGradient id="paint1_linear_136_800" x1="522.309" y1="807.398" x2="534.683" y2="863.329" gradientUnits="userSpaceOnUse">
<stop stop-color="#09005D"/>
<stop offset="1" stop-color="#1A0F91"/>
</linearGradient>
<linearGradient id="paint2_linear_136_800" x1="498.225" y1="775.351" x2="473.477" y2="562.517" gradientUnits="userSpaceOnUse">
<stop stop-color="#09005D"/>
<stop offset="1" stop-color="#1A0F91"/>
</linearGradient>
<linearGradient id="paint3_linear_136_800" x1="502.653" y1="572.447" x2="484.776" y2="572.447" gradientUnits="userSpaceOnUse">
<stop stop-color="#FF928E"/>
<stop offset="1" stop-color="#FEB3B1"/>
</linearGradient>
<linearGradient id="paint4_linear_136_800" x1="662.083" y1="776.473" x2="674.457" y2="832.404" gradientUnits="userSpaceOnUse">
<stop stop-color="#09005D"/>
<stop offset="1" stop-color="#1A0F91"/>
</linearGradient>
<linearGradient id="paint5_linear_136_800" x1="637.411" y1="759.167" x2="612.663" y2="546.332" gradientUnits="userSpaceOnUse">
<stop stop-color="#09005D"/>
<stop offset="1" stop-color="#1A0F91"/>
</linearGradient>
<linearGradient id="paint6_linear_136_800" x1="616.305" y1="557.544" x2="594.94" y2="557.544" gradientUnits="userSpaceOnUse">
<stop stop-color="#FF928E"/>
<stop offset="1" stop-color="#FEB3B1"/>
</linearGradient>
<linearGradient id="paint7_linear_136_800" x1="665.794" y1="620.022" x2="385.132" y2="302.484" gradientUnits="userSpaceOnUse">
<stop stop-color="#4042E2"/>
<stop offset="1" stop-color="#4F52FF"/>
</linearGradient>
<linearGradient id="paint8_linear_136_800" x1="518.423" y1="246.122" x2="594.478" y2="313.471" gradientUnits="userSpaceOnUse">
<stop stop-color="#FF928E"/>
<stop offset="1" stop-color="#FEB3B1"/>
</linearGradient>
<linearGradient id="paint9_linear_136_800" x1="375.847" y1="252.493" x2="315.951" y2="252.493" gradientUnits="userSpaceOnUse">
<stop stop-color="#FF928E"/>
<stop offset="1" stop-color="#FEB3B1"/>
</linearGradient>
<linearGradient id="paint10_linear_136_800" x1="434.069" y1="92.4273" x2="434.723" y2="204.28" gradientUnits="userSpaceOnUse">
<stop stop-color="#FF928E"/>
<stop offset="1" stop-color="#FEB3B1"/>
</linearGradient>
<linearGradient id="paint11_linear_136_800" x1="600.552" y1="296.37" x2="286.899" y2="296.37" gradientUnits="userSpaceOnUse">
<stop stop-color="#09005D"/>
<stop offset="1" stop-color="#1A0F91"/>
</linearGradient>
<linearGradient id="paint12_linear_136_800" x1="320.387" y1="157.291" x2="0.0262474" y2="157.291" gradientUnits="userSpaceOnUse">
<stop stop-color="#09005D"/>
<stop offset="1" stop-color="#1A0F91"/>
</linearGradient>
<linearGradient id="paint13_linear_136_800" x1="284.167" y1="73.5399" x2="326.734" y2="80.4694" gradientUnits="userSpaceOnUse">
<stop stop-color="#FF928E"/>
<stop offset="1" stop-color="#FEB3B1"/>
</linearGradient>
<linearGradient id="paint14_linear_136_800" x1="447.971" y1="86.0224" x2="256.941" y2="110.176" gradientUnits="userSpaceOnUse">
<stop stop-color="#09005D"/>
<stop offset="1" stop-color="#1A0F91"/>
</linearGradient>
<linearGradient id="paint15_linear_136_800" x1="469.345" y1="142.639" x2="432.109" y2="91.491" gradientUnits="userSpaceOnUse">
<stop stop-color="#FF928E"/>
<stop offset="1" stop-color="#FEB3B1"/>
</linearGradient>
<linearGradient id="paint16_linear_136_800" x1="488.388" y1="280.04" x2="564.444" y2="347.389" gradientUnits="userSpaceOnUse">
<stop stop-color="#FF928E"/>
<stop offset="1" stop-color="#FEB3B1"/>
</linearGradient>
<linearGradient id="paint17_linear_136_800" x1="322.314" y1="245.458" x2="300.865" y2="245.458" gradientUnits="userSpaceOnUse">
<stop stop-color="#FF928E"/>
<stop offset="1" stop-color="#FEB3B1"/>
</linearGradient>
<clipPath id="clip0_136_800">
<rect x="26" y="50" width="259" height="244" rx="122" fill="white"/>
</clipPath>
</defs>
</svg>
