<svg width="308" height="48" viewBox="0 0 308 48" fill="none" xmlns="http://www.w3.org/2000/svg">
<g clip-path="url(#clip0_125_767)">
<path fill-rule="evenodd" clip-rule="evenodd" d="M18.3995 47.7221C13.8969 42.3023 9.19977 36.9658 4.94731 31.3793C2.14013 27.6827 0 23.7638 0 18.5941C0 -6.19803 37.9386 -6.19803 37.9386 18.5941C37.9386 23.7915 35.7985 27.6827 32.9913 31.3793C28.7389 36.9658 24.0139 42.3023 19.5391 47.7221C19.4001 47.8888 19.1778 48 18.9554 48C18.7331 48 18.5385 47.8888 18.3995 47.7221Z" fill="#286AA7"/>
<circle cx="18.8996" cy="18.6223" r="13.3411" fill="white"/>
<path d="M15.9995 15.6836L21.2742 11.0505C22.9908 9.54226 25.5907 9.68392 27.0739 11.3672C28.5572 13.0504 28.3655 15.6419 26.6406 17.1585L21.3659 21.7916L15.9995 15.6836Z" fill="#286AA7"/>
<path d="M16.1494 15.5498L10.8746 20.1829C9.15805 21.6912 8.9664 24.2827 10.4413 25.9743C11.9246 27.6575 14.5161 27.8075 16.241 26.2909L21.5157 21.6578L16.1494 15.5498Z" fill="#A72828"/>
<path d="M10.8245 23.5329C10.7245 22.5163 11.1995 21.5164 12.0328 20.9081C12.4494 20.5997 11.9411 20.0081 11.5328 20.3081C10.4745 21.0914 9.91622 22.3913 10.0412 23.6746C10.0912 24.1746 10.8745 24.0329 10.8245 23.5329Z" fill="#DDDAE8"/>
<path d="M10.5077 25.0077C10.6077 25.0077 10.6994 24.9744 10.7744 24.8994L10.791 24.8827C10.8577 24.816 10.9077 24.7161 10.9077 24.6244C10.9077 24.5327 10.8744 24.4244 10.8077 24.3661C10.7411 24.2994 10.6494 24.2494 10.5494 24.2577C10.4494 24.2577 10.3577 24.2911 10.2827 24.3661L10.2661 24.3827C10.1994 24.4494 10.1494 24.5494 10.1494 24.6411C10.1494 24.7327 10.1827 24.841 10.2494 24.8994C10.3244 24.966 10.4161 25.016 10.5077 25.0077Z" fill="#DDDAE8"/>
<g opacity="0.18">
<path opacity="0.66" d="M15.7079 25.0744L20.8242 20.5746L20.9742 20.4413L26.0906 15.9415C27.2906 14.8832 27.7489 13.3 27.4072 11.8584C28.4739 13.525 28.1739 15.7915 26.6073 17.1581L21.4909 21.6579L21.3409 21.7912L16.2245 26.291C14.5079 27.7992 11.908 27.6576 10.4248 25.9743C9.98315 25.466 9.6915 24.8827 9.5415 24.2661C9.64983 24.4327 9.77483 24.5994 9.90815 24.7494C11.3997 26.4493 13.9913 26.591 15.7079 25.0744Z" fill="white"/>
</g>
</g>
<path d="M47.9612 35.5V12.2273H57.143C58.9082 12.2273 60.412 12.5644 61.6544 13.2386C62.8968 13.9053 63.8438 14.8333 64.4953 16.0227C65.1544 17.2045 65.4839 18.5682 65.4839 20.1136C65.4839 21.6591 65.1506 23.0227 64.4839 24.2045C63.8173 25.3864 62.8514 26.3068 61.5862 26.9659C60.3286 27.625 58.8059 27.9545 57.018 27.9545H51.1657V24.0114H56.2226C57.1695 24.0114 57.9498 23.8485 58.5635 23.5227C59.1847 23.1894 59.6468 22.7311 59.9498 22.1477C60.2604 21.5568 60.4157 20.8788 60.4157 20.1136C60.4157 19.3409 60.2604 18.6667 59.9498 18.0909C59.6468 17.5076 59.1847 17.0568 58.5635 16.7386C57.9423 16.4129 57.1544 16.25 56.1998 16.25H52.8817V35.5H47.9612ZM73.43 25.4091V35.5H68.589V12.2273H73.2936V21.125H73.4981C73.8921 20.0947 74.5284 19.2879 75.4072 18.7045C76.286 18.1136 77.3883 17.8182 78.714 17.8182C79.9262 17.8182 80.983 18.0833 81.8845 18.6136C82.7936 19.1364 83.4981 19.8902 83.9981 20.875C84.5057 21.8523 84.7557 23.0227 84.7481 24.3864V35.5H79.9072V25.25C79.9148 24.1742 79.6421 23.3371 79.089 22.7386C78.5436 22.1402 77.7784 21.8409 76.7936 21.8409C76.1345 21.8409 75.5512 21.9811 75.0436 22.2614C74.5436 22.5417 74.1497 22.9508 73.8618 23.4886C73.5815 24.0189 73.4375 24.6591 73.43 25.4091ZM93.5351 35.8295C92.4214 35.8295 91.429 35.6364 90.5578 35.25C89.6866 34.8561 88.9972 34.2765 88.4896 33.5114C87.9896 32.7386 87.7396 31.7765 87.7396 30.625C87.7396 29.6553 87.9176 28.8409 88.2737 28.1818C88.6298 27.5227 89.1146 26.9924 89.7282 26.5909C90.3419 26.1894 91.0389 25.8864 91.8192 25.6818C92.607 25.4773 93.4328 25.3333 94.2964 25.25C95.3116 25.1439 96.1298 25.0455 96.751 24.9545C97.3722 24.8561 97.8229 24.7121 98.1032 24.5227C98.3836 24.3333 98.5237 24.053 98.5237 23.6818V23.6136C98.5237 22.8939 98.2964 22.3371 97.8419 21.9432C97.3949 21.5492 96.7586 21.3523 95.9328 21.3523C95.0616 21.3523 94.3684 21.5455 93.8532 21.9318C93.3381 22.3106 92.9972 22.7879 92.8305 23.3636L88.3532 23C88.5805 21.9394 89.0275 21.0227 89.6942 20.25C90.3608 19.4697 91.2207 18.8712 92.2737 18.4545C93.3343 18.0303 94.5616 17.8182 95.9555 17.8182C96.9252 17.8182 97.8532 17.9318 98.7396 18.1591C99.6336 18.3864 100.425 18.7386 101.115 19.2159C101.812 19.6932 102.361 20.3068 102.762 21.0568C103.164 21.7992 103.365 22.6894 103.365 23.7273V35.5H98.7737V33.0795H98.6373C98.357 33.625 97.982 34.1061 97.5123 34.5227C97.0426 34.9318 96.4782 35.2538 95.8192 35.4886C95.1601 35.7159 94.3987 35.8295 93.5351 35.8295ZM94.9214 32.4886C95.6336 32.4886 96.2623 32.3485 96.8078 32.0682C97.3532 31.7803 97.7813 31.3939 98.0919 30.9091C98.4025 30.4242 98.5578 29.875 98.5578 29.2614V27.4091C98.4063 27.5076 98.1979 27.5985 97.9328 27.6818C97.6752 27.7576 97.3836 27.8295 97.0578 27.8977C96.732 27.9583 96.4063 28.0152 96.0805 28.0682C95.7548 28.1136 95.4593 28.1553 95.1942 28.1932C94.626 28.2765 94.1298 28.4091 93.7055 28.5909C93.2813 28.7727 92.9517 29.0189 92.7169 29.3295C92.482 29.6326 92.3646 30.0114 92.3646 30.4659C92.3646 31.125 92.6032 31.6288 93.0805 31.9773C93.5654 32.3182 94.179 32.4886 94.9214 32.4886ZM107.12 35.5V18.0455H111.813V21.0909H111.995C112.313 20.0076 112.848 19.1894 113.598 18.6364C114.348 18.0758 115.211 17.7955 116.188 17.7955C116.431 17.7955 116.692 17.8106 116.973 17.8409C117.253 17.8712 117.499 17.9129 117.711 17.9659V22.2614C117.484 22.1932 117.17 22.1326 116.768 22.0795C116.367 22.0265 115.999 22 115.666 22C114.954 22 114.317 22.1553 113.757 22.4659C113.204 22.7689 112.764 23.1932 112.438 23.7386C112.12 24.2841 111.961 24.9129 111.961 25.625V35.5H107.12ZM120.214 35.5V18.0455H124.828V21.125H125.032C125.396 20.1023 126.002 19.2955 126.85 18.7045C127.699 18.1136 128.714 17.8182 129.896 17.8182C131.093 17.8182 132.112 18.1174 132.953 18.7159C133.794 19.3068 134.354 20.1098 134.635 21.125H134.816C135.172 20.125 135.816 19.3258 136.748 18.7273C137.688 18.1212 138.797 17.8182 140.078 17.8182C141.706 17.8182 143.028 18.3371 144.044 19.375C145.066 20.4053 145.578 21.8674 145.578 23.7614V35.5H140.748V24.7159C140.748 23.7462 140.491 23.0189 139.975 22.5341C139.46 22.0492 138.816 21.8068 138.044 21.8068C137.165 21.8068 136.479 22.0871 135.987 22.6477C135.494 23.2008 135.248 23.9318 135.248 24.8409V35.5H130.555V24.6136C130.555 23.7576 130.309 23.0758 129.816 22.5682C129.331 22.0606 128.691 21.8068 127.896 21.8068C127.358 21.8068 126.873 21.9432 126.441 22.2159C126.017 22.4811 125.68 22.8561 125.43 23.3409C125.18 23.8182 125.055 24.3788 125.055 25.0227V35.5H120.214ZM154.379 35.8295C153.265 35.8295 152.273 35.6364 151.402 35.25C150.53 34.8561 149.841 34.2765 149.333 33.5114C148.833 32.7386 148.583 31.7765 148.583 30.625C148.583 29.6553 148.761 28.8409 149.117 28.1818C149.474 27.5227 149.958 26.9924 150.572 26.5909C151.186 26.1894 151.883 25.8864 152.663 25.6818C153.451 25.4773 154.277 25.3333 155.14 25.25C156.155 25.1439 156.974 25.0455 157.595 24.9545C158.216 24.8561 158.667 24.7121 158.947 24.5227C159.227 24.3333 159.367 24.053 159.367 23.6818V23.6136C159.367 22.8939 159.14 22.3371 158.686 21.9432C158.239 21.5492 157.602 21.3523 156.777 21.3523C155.905 21.3523 155.212 21.5455 154.697 21.9318C154.182 22.3106 153.841 22.7879 153.674 23.3636L149.197 23C149.424 21.9394 149.871 21.0227 150.538 20.25C151.205 19.4697 152.064 18.8712 153.117 18.4545C154.178 18.0303 155.405 17.8182 156.799 17.8182C157.769 17.8182 158.697 17.9318 159.583 18.1591C160.477 18.3864 161.269 18.7386 161.958 19.2159C162.655 19.6932 163.205 20.3068 163.606 21.0568C164.008 21.7992 164.208 22.6894 164.208 23.7273V35.5H159.617V33.0795H159.481C159.201 33.625 158.826 34.1061 158.356 34.5227C157.886 34.9318 157.322 35.2538 156.663 35.4886C156.004 35.7159 155.242 35.8295 154.379 35.8295ZM155.765 32.4886C156.477 32.4886 157.106 32.3485 157.652 32.0682C158.197 31.7803 158.625 31.3939 158.936 30.9091C159.246 30.4242 159.402 29.875 159.402 29.2614V27.4091C159.25 27.5076 159.042 27.5985 158.777 27.6818C158.519 27.7576 158.227 27.8295 157.902 27.8977C157.576 27.9583 157.25 28.0152 156.924 28.0682C156.599 28.1136 156.303 28.1553 156.038 28.1932C155.47 28.2765 154.974 28.4091 154.549 28.5909C154.125 28.7727 153.795 29.0189 153.561 29.3295C153.326 29.6326 153.208 30.0114 153.208 30.4659C153.208 31.125 153.447 31.6288 153.924 31.9773C154.409 32.3182 155.023 32.4886 155.765 32.4886ZM195.995 20.375H191.018C190.927 19.7311 190.742 19.1591 190.461 18.6591C190.181 18.1515 189.821 17.7197 189.382 17.3636C188.942 17.0076 188.435 16.7348 187.859 16.5455C187.291 16.3561 186.673 16.2614 186.007 16.2614C184.802 16.2614 183.753 16.5606 182.859 17.1591C181.965 17.75 181.272 18.6136 180.779 19.75C180.287 20.8788 180.041 22.25 180.041 23.8636C180.041 25.5227 180.287 26.9167 180.779 28.0455C181.279 29.1742 181.976 30.0265 182.87 30.6023C183.764 31.178 184.798 31.4659 185.973 31.4659C186.632 31.4659 187.242 31.3788 187.802 31.2045C188.37 31.0303 188.874 30.7765 189.313 30.4432C189.753 30.1023 190.117 29.6894 190.404 29.2045C190.7 28.7197 190.904 28.1667 191.018 27.5455L195.995 27.5682C195.867 28.6364 195.545 29.6667 195.029 30.6591C194.522 31.6439 193.836 32.5265 192.973 33.3068C192.117 34.0795 191.094 34.6932 189.904 35.1477C188.723 35.5947 187.385 35.8182 185.893 35.8182C183.817 35.8182 181.961 35.3485 180.325 34.4091C178.696 33.4697 177.408 32.1098 176.461 30.3295C175.522 28.5492 175.052 26.3939 175.052 23.8636C175.052 21.3258 175.529 19.1667 176.484 17.3864C177.438 15.6061 178.734 14.25 180.37 13.3182C182.007 12.3788 183.848 11.9091 185.893 11.9091C187.242 11.9091 188.492 12.0985 189.643 12.4773C190.802 12.8561 191.829 13.4091 192.723 14.1364C193.617 14.8561 194.344 15.7386 194.904 16.7841C195.473 17.8295 195.836 19.0265 195.995 20.375ZM207.319 35.8409C205.554 35.8409 204.027 35.4659 202.74 34.7159C201.459 33.9583 200.471 32.9053 199.774 31.5568C199.077 30.2008 198.728 28.6288 198.728 26.8409C198.728 25.0379 199.077 23.4621 199.774 22.1136C200.471 20.7576 201.459 19.7045 202.74 18.9545C204.027 18.197 205.554 17.8182 207.319 17.8182C209.084 17.8182 210.607 18.197 211.887 18.9545C213.175 19.7045 214.168 20.7576 214.865 22.1136C215.562 23.4621 215.91 25.0379 215.91 26.8409C215.91 28.6288 215.562 30.2008 214.865 31.5568C214.168 32.9053 213.175 33.9583 211.887 34.7159C210.607 35.4659 209.084 35.8409 207.319 35.8409ZM207.342 32.0909C208.145 32.0909 208.815 31.8636 209.353 31.4091C209.891 30.947 210.296 30.3182 210.569 29.5227C210.849 28.7273 210.99 27.822 210.99 26.8068C210.99 25.7917 210.849 24.8864 210.569 24.0909C210.296 23.2955 209.891 22.6667 209.353 22.2045C208.815 21.7424 208.145 21.5114 207.342 21.5114C206.531 21.5114 205.849 21.7424 205.296 22.2045C204.751 22.6667 204.338 23.2955 204.058 24.0909C203.785 24.8864 203.649 25.7917 203.649 26.8068C203.649 27.822 203.785 28.7273 204.058 29.5227C204.338 30.3182 204.751 30.947 205.296 31.4091C205.849 31.8636 206.531 32.0909 207.342 32.0909ZM223.899 25.4091V35.5H219.058V18.0455H223.671V21.125H223.876C224.262 20.1098 224.91 19.3068 225.819 18.7159C226.728 18.1174 227.831 17.8182 229.126 17.8182C230.338 17.8182 231.395 18.0833 232.296 18.6136C233.198 19.1439 233.899 19.9015 234.399 20.8864C234.899 21.8636 235.149 23.0303 235.149 24.3864V35.5H230.308V25.25C230.315 24.1818 230.043 23.3485 229.49 22.75C228.937 22.1439 228.175 21.8409 227.206 21.8409C226.554 21.8409 225.978 21.9811 225.478 22.2614C224.986 22.5417 224.599 22.9508 224.319 23.4886C224.046 24.0189 223.906 24.6591 223.899 25.4091ZM243.805 25.4091V35.5H238.964V18.0455H243.578V21.125H243.782C244.169 20.1098 244.816 19.3068 245.725 18.7159C246.634 18.1174 247.737 17.8182 249.032 17.8182C250.244 17.8182 251.301 18.0833 252.203 18.6136C253.104 19.1439 253.805 19.9015 254.305 20.8864C254.805 21.8636 255.055 23.0303 255.055 24.3864V35.5H250.214V25.25C250.222 24.1818 249.949 23.3485 249.396 22.75C248.843 22.1439 248.081 21.8409 247.112 21.8409C246.46 21.8409 245.884 21.9811 245.384 22.2614C244.892 22.5417 244.506 22.9508 244.225 23.4886C243.953 24.0189 243.813 24.6591 243.805 25.4091ZM266.825 35.8409C265.029 35.8409 263.484 35.4773 262.188 34.75C260.901 34.0152 259.908 32.9773 259.211 31.6364C258.514 30.2879 258.166 28.6932 258.166 26.8523C258.166 25.0568 258.514 23.4811 259.211 22.125C259.908 20.7689 260.889 19.7121 262.154 18.9545C263.427 18.197 264.92 17.8182 266.632 17.8182C267.783 17.8182 268.855 18.0038 269.848 18.375C270.848 18.7386 271.719 19.2879 272.461 20.0227C273.211 20.7576 273.795 21.6818 274.211 22.7955C274.628 23.9015 274.836 25.197 274.836 26.6818V28.0114H260.098V25.0114H270.279C270.279 24.3144 270.128 23.697 269.825 23.1591C269.522 22.6212 269.101 22.2008 268.563 21.8977C268.033 21.5871 267.416 21.4318 266.711 21.4318C265.976 21.4318 265.325 21.6023 264.757 21.9432C264.196 22.2765 263.757 22.7273 263.438 23.2955C263.12 23.8561 262.957 24.4811 262.95 25.1705V28.0227C262.95 28.8864 263.109 29.6326 263.427 30.2614C263.753 30.8902 264.211 31.375 264.802 31.7159C265.393 32.0568 266.094 32.2273 266.904 32.2273C267.442 32.2273 267.935 32.1515 268.382 32C268.829 31.8485 269.211 31.6212 269.529 31.3182C269.848 31.0152 270.09 30.6439 270.257 30.2045L274.734 30.5C274.507 31.5758 274.041 32.5152 273.336 33.3182C272.639 34.1136 271.738 34.7348 270.632 35.1818C269.533 35.6212 268.264 35.8409 266.825 35.8409ZM285.882 35.8409C284.094 35.8409 282.556 35.4621 281.268 34.7045C279.988 33.9394 279.003 32.8788 278.313 31.5227C277.632 30.1667 277.291 28.6061 277.291 26.8409C277.291 25.053 277.635 23.4848 278.325 22.1364C279.022 20.7803 280.01 19.7235 281.291 18.9659C282.571 18.2008 284.094 17.8182 285.859 17.8182C287.382 17.8182 288.715 18.0947 289.859 18.6477C291.003 19.2008 291.908 19.9773 292.575 20.9773C293.242 21.9773 293.609 23.1515 293.677 24.5H289.109C288.98 23.6288 288.639 22.928 288.086 22.3977C287.541 21.8598 286.825 21.5909 285.938 21.5909C285.188 21.5909 284.533 21.7955 283.973 22.2045C283.42 22.6061 282.988 23.1932 282.677 23.9659C282.367 24.7386 282.211 25.6742 282.211 26.7727C282.211 27.8864 282.363 28.8333 282.666 29.6136C282.976 30.3939 283.412 30.9886 283.973 31.3977C284.533 31.8068 285.188 32.0114 285.938 32.0114C286.492 32.0114 286.988 31.8977 287.427 31.6705C287.874 31.4432 288.242 31.1136 288.529 30.6818C288.825 30.2424 289.018 29.7159 289.109 29.1023H293.677C293.601 30.4356 293.238 31.6098 292.586 32.625C291.942 33.6326 291.052 34.4205 289.916 34.9886C288.779 35.5568 287.435 35.8409 285.882 35.8409ZM306.061 18.0455V21.6818H295.549V18.0455H306.061ZM297.936 13.8636H302.777V30.1364C302.777 30.5833 302.845 30.9318 302.981 31.1818C303.117 31.4242 303.307 31.5947 303.549 31.6932C303.799 31.7917 304.087 31.8409 304.413 31.8409C304.64 31.8409 304.867 31.822 305.095 31.7841C305.322 31.7386 305.496 31.7045 305.617 31.6818L306.379 35.2841C306.136 35.3598 305.795 35.447 305.356 35.5455C304.917 35.6515 304.383 35.7159 303.754 35.7386C302.587 35.7841 301.564 35.6288 300.686 35.2727C299.814 34.9167 299.136 34.3636 298.652 33.6136C298.167 32.8636 297.928 31.9167 297.936 30.7727V13.8636Z" fill="#286AA7"/>
<defs>
<clipPath id="clip0_125_767">
<rect width="37.9386" height="48" fill="white"/>
</clipPath>
</defs>
</svg>
